<svg width="165" height="44" viewBox="0 0 165 44" fill="none" xmlns="http://www.w3.org/2000/svg">
<path d="M53.9849 27.2825L56.4545 27.2676L58.5175 19.8756L60.4901 27.2676H62.9748L65.9112 16.8861H63.6374L61.7701 24.9028L59.7523 16.8861H57.4031L55.2648 24.9474L53.4126 16.8861H51.1539L53.9849 27.2825ZM69.3897 21.6009V18.5816H71.0612C72.2534 18.5816 72.7779 19.1468 72.7779 20.0987C72.7779 21.0208 72.2508 21.6009 71.0612 21.6009H69.3897ZM74.9463 20.0987C74.9463 18.3015 73.6814 16.8861 71.1516 16.8861H67.2815V27.2676H69.3897V23.2816H71.1516C73.8621 23.2816 74.9463 21.6753 74.9463 20.0987ZM83.6953 16.8861H80.021V27.2676H83.6953C87.0534 27.2676 89.2369 25.23 89.2369 22.0917C89.2369 18.9386 87.0534 16.8861 83.6953 16.8861ZM82.1267 25.5002V18.6411H83.6175C85.8311 18.6411 87.081 19.9351 87.081 22.0917C87.081 24.2483 85.8311 25.5002 83.6175 25.5002H82.1267ZM90.2759 23.1155C90.2759 25.6886 91.9624 27.399 94.0706 27.399C94.6081 27.4165 95.1416 27.3036 95.6247 27.0702C96.1077 26.8369 96.5255 26.4901 96.8414 26.0604V27.2676H98.9647V19.0253H96.8414V20.2028C96.5231 19.7812 96.1062 19.4419 95.6264 19.214C95.1465 18.9861 94.6179 18.8763 94.0857 18.894C91.9624 18.894 90.2759 20.5449 90.2759 23.1155ZM96.8414 23.1452C96.8703 23.4507 96.8346 23.7588 96.7368 24.05C96.6389 24.3412 96.481 24.6092 96.2729 24.8371C96.0649 25.0649 95.8113 25.2476 95.5281 25.3737C95.245 25.4998 94.9384 25.5665 94.6278 25.5696C94.3179 25.5593 94.0134 25.4866 93.7329 25.3561C93.4524 25.2256 93.2018 25.0399 92.9965 24.8104C92.7904 24.5808 92.634 24.312 92.5369 24.0206C92.4398 23.7291 92.404 23.4211 92.4318 23.1155C92.4038 22.8132 92.4395 22.5084 92.5367 22.2205C92.6339 21.9325 92.7904 21.6675 92.9965 21.4422C93.2031 21.217 93.4547 21.0366 93.7355 20.9123C94.0163 20.7881 94.3201 20.7227 94.6278 20.7203C94.9388 20.7235 95.2456 20.7904 95.529 20.9168C95.8124 21.0432 96.0662 21.2263 96.2742 21.4546C96.4817 21.6829 96.6391 21.9513 96.7363 22.2427C96.8335 22.5341 96.8684 22.8423 96.8389 23.1477L96.8414 23.1452ZM103.136 23.1601C103.136 21.5687 103.889 21.0927 105.139 21.0927H105.696V18.9064C105.182 18.8937 104.674 19.0166 104.224 19.2623C103.774 19.508 103.398 19.8678 103.136 20.3044V19.0253H101.028V27.2676H103.136V23.1601ZM107.111 27.2676H109.22V23.7575L112.051 27.2676H114.791L111.089 23.1626L114.759 19.0253H112.02L109.22 22.5206V16.2614H107.111V27.2676ZM119.489 27.2676H121.598V20.5127L124.429 27.2676H126.025L128.841 20.5127V27.2676H130.949V16.8861H128.57L125.227 24.6028L121.884 16.8836H119.489V27.2676ZM141.083 23.1477C141.109 22.5836 141.016 22.0202 140.81 21.4935C140.604 20.9668 140.289 20.4882 139.886 20.0882C139.482 19.688 138.998 19.3752 138.466 19.1696C137.933 18.9641 137.363 18.8702 136.792 18.894C136.22 18.8702 135.65 18.9641 135.118 19.1696C134.585 19.3752 134.101 19.688 133.698 20.0882C133.294 20.4882 132.979 20.9668 132.773 21.4935C132.567 22.0202 132.474 22.5836 132.5 23.1477C132.468 23.7082 132.556 24.269 132.756 24.7942C132.957 25.3195 133.266 25.7976 133.665 26.198C134.063 26.5983 134.541 26.9121 135.069 27.1194C135.597 27.3266 136.164 27.4227 136.731 27.4015C137.306 27.4264 137.879 27.3339 138.416 27.1295C138.952 26.9252 139.44 26.6135 139.849 26.2141C140.257 25.8146 140.578 25.3361 140.79 24.8084C141.003 24.2807 141.103 23.7153 141.083 23.1477ZM134.638 23.1477C134.638 21.4968 135.647 20.7085 136.762 20.7085C137.876 20.7085 138.915 21.4968 138.915 23.1477C138.915 24.7838 137.848 25.5869 136.731 25.5869C135.602 25.5869 134.638 24.7838 134.638 23.1477ZM142.092 23.118C142.092 25.691 143.779 27.4015 145.902 27.4015C146.437 27.4242 146.97 27.3119 147.449 27.0751C147.928 26.8383 148.338 26.4848 148.64 26.048V27.2676H150.779V16.2614H148.64V20.1731C148.315 19.7683 147.9 19.4426 147.428 19.2209C146.955 18.9992 146.438 18.8873 145.915 18.894C143.781 18.894 142.092 20.5449 142.092 23.1155V23.118ZM148.658 23.1477C148.687 23.4532 148.651 23.7613 148.553 24.0525C148.455 24.3437 148.297 24.6117 148.089 24.8395C147.881 25.0674 147.628 25.2501 147.345 25.3761C147.061 25.5022 146.755 25.5689 146.444 25.5721C146.134 25.5618 145.83 25.4891 145.549 25.3586C145.269 25.2281 145.018 25.0424 144.813 24.8129C144.607 24.5833 144.45 24.3145 144.353 24.023C144.256 23.7316 144.22 23.4236 144.248 23.118C144.22 22.8157 144.256 22.5109 144.353 22.2229C144.45 21.935 144.607 21.67 144.813 21.4447C145.019 21.2195 145.271 21.0391 145.552 20.9148C145.833 20.7905 146.136 20.7251 146.444 20.7228C146.755 20.7259 147.061 20.7926 147.345 20.9187C147.628 21.0447 147.881 21.2275 148.089 21.4553C148.297 21.6831 148.455 21.9511 148.553 22.2423C148.651 22.5335 148.687 22.8416 148.658 23.1471V23.1477ZM156.428 20.6069C156.677 20.589 156.926 20.6208 157.162 20.7005C157.398 20.7801 157.615 20.9059 157.801 21.0704C157.986 21.2354 158.137 21.4357 158.242 21.6593C158.347 21.8829 158.406 22.1253 158.414 22.3718H154.453C154.491 21.884 154.717 21.429 155.084 21.1003C155.45 20.7715 155.931 20.5941 156.426 20.6044L156.428 20.6069ZM160.388 24.6821H158.115C157.971 24.9961 157.734 25.2595 157.436 25.4375C157.137 25.6155 156.791 25.6996 156.443 25.6786C156.185 25.6853 155.927 25.6412 155.686 25.5488C155.445 25.4565 155.225 25.3178 155.039 25.1407C154.853 24.9638 154.704 24.7522 154.602 24.5182C154.499 24.2842 154.444 24.0324 154.441 23.7773H160.54C160.583 23.511 160.604 23.2415 160.602 22.9717C160.632 22.43 160.547 21.888 160.351 21.3811C160.155 20.8742 159.854 20.4136 159.466 20.0293C159.078 19.645 158.613 19.3455 158.101 19.1504C157.588 18.9552 157.04 18.8687 156.491 18.8964C154.022 18.8964 152.305 20.5474 152.305 23.1502C152.305 25.7381 154.067 27.4039 156.491 27.4039C157.355 27.4446 158.208 27.1988 158.914 26.7056C159.621 26.2124 160.14 25.5002 160.389 24.6821H160.388Z" fill="white"/>
<path d="M41.4109 22.3099C41.4109 12.042 32.9835 3.71831 22.5878 3.71831C12.192 3.71831 3.76463 12.042 3.76463 22.3099C3.76463 32.5777 12.192 40.9014 22.5878 40.9014C32.9835 40.9014 41.4109 32.5777 41.4109 22.3099Z" fill="black"/>
<path fill-rule="evenodd" clip-rule="evenodd" d="M22.5878 5.33803C13.0791 5.33803 5.39207 12.9482 5.39207 22.3099C5.39207 31.6715 13.0791 39.2817 22.5878 39.2817C32.0964 39.2817 39.7835 31.6715 39.7835 22.3099C39.7835 12.9482 32.0964 5.33803 22.5878 5.33803ZM3.39207 22.3099C3.39207 11.8204 11.998 3.33803 22.5878 3.33803C33.1776 3.33803 41.7835 11.8204 41.7835 22.3099C41.7835 32.7993 33.1776 41.2817 22.5878 41.2817C11.998 41.2817 3.39207 32.7993 3.39207 22.3099Z" fill="#FF631A"/>
<path d="M23.613 31.0578C25.2926 31.0753 26.9416 30.6138 28.3622 29.7287C29.7829 28.8436 30.9148 27.5725 31.6223 26.0678C30.7129 26.4598 29.7281 26.6518 28.7361 26.6305C26.8685 26.6286 25.0781 25.895 23.7574 24.5908C22.4368 23.2865 21.694 21.5181 21.6918 19.6736C21.7108 18.3977 22.0723 17.1497 22.7393 16.0569C23.4063 14.9641 24.355 14.0657 25.4884 13.4535C24.8666 13.375 24.2399 13.3398 23.613 13.3481C21.2354 13.3481 18.9552 14.281 17.2739 15.9415C15.5927 17.6021 14.6482 19.8543 14.6482 22.2026C14.6482 24.551 15.5927 26.8032 17.2739 28.4638C18.9552 30.1243 21.2354 31.0572 23.613 31.0572V31.0578Z" fill="#D7F1E1"/>
<path d="M31.0582 16.7324C31.578 16.7324 31.9994 16.3162 31.9994 15.8028C31.9994 15.2894 31.578 14.8732 31.0582 14.8732C30.5384 14.8732 30.117 15.2894 30.117 15.8028C30.117 16.3162 30.5384 16.7324 31.0582 16.7324Z" fill="white"/>
<path d="M27.2936 24.7887C27.4668 24.7887 27.6073 24.65 27.6073 24.4789C27.6073 24.3077 27.4668 24.169 27.2936 24.169C27.1203 24.169 26.9799 24.3077 26.9799 24.4789C26.9799 24.65 27.1203 24.7887 27.2936 24.7887Z" fill="white"/>
<path d="M25.4113 18.5916C25.5845 18.5916 25.725 18.4528 25.725 18.2817C25.725 18.1106 25.5845 17.9718 25.4113 17.9718C25.238 17.9718 25.0975 18.1106 25.0975 18.2817C25.0975 18.4528 25.238 18.5916 25.4113 18.5916Z" fill="white"/>
<path d="M34.8228 22.9296C34.9961 22.9296 35.1366 22.7909 35.1366 22.6197C35.1366 22.4486 34.9961 22.3099 34.8228 22.3099C34.6496 22.3099 34.5091 22.4486 34.5091 22.6197C34.5091 22.7909 34.6496 22.9296 34.8228 22.9296Z" fill="white"/>
</svg>
