<svg xmlns="http://www.w3.org/2000/svg" width="307.35" height="53.005" viewBox="0 0 307.35 53.005"><g id="logo" transform="translate(-3.694 -1.54)"><g id="Group_4" data-name="Group 4" transform="translate(3.694 1.54)"><path id="Path_1061" data-name="Path 1061" d="M52.133,13.167a1.962,1.962,0,1,0-3.246,2.2,22.581,22.581,0,1,1-9.9-8.126,3.642,3.642,0,1,0,1.962-3.428,26.5,26.5,0,1,0,11.182,9.35Z" transform="translate(-3.694 -1.54)" fill="#fff"></path><path id="Path_1062" data-name="Path 1062" d="M24.448,14.094" transform="translate(3.563 2.849)" fill="#fff"></path><path id="Path_1063" data-name="Path 1063" d="M18.1,21.676c5.693.063,6.816-2.216,6.816-2.216H14.609v2.178Z" transform="translate(0.122 4.726)" fill="#fff"></path><path id="Path_1064" data-name="Path 1064" d="M18.1,21.676l-3.5-.038v1.745H21A3.923,3.923,0,0,0,24.92,19.46S23.8,21.74,18.1,21.676Z" transform="translate(0.122 4.726)" fill="#fff"></path><path id="Path_1065" data-name="Path 1065" d="M28.579,17.969H28.6l-.008-.018Z" transform="translate(5.007 4.198)" fill="#fff"></path><path id="Path_1066" data-name="Path 1066" d="M34.485,22.406l-3.1-7.069a2.078,2.078,0,0,0-3.806,0l-1.557,3.552C29.194,13.562,33.078,19.758,34.485,22.406Z" transform="translate(4.112 2.849)" fill="#fff"></path><path id="Path_1067" data-name="Path 1067" d="M26.42,18.19,24.881,21.7c.346-.506,2.271-3.13,4.991-3.079l.008-.018.008.018c1.513.034,3.272.9,5.139,3.416l-.144-.327C33.477,19.059,29.593,12.863,26.42,18.19Z" transform="translate(3.714 3.549)" fill="#fff"></path><path id="Path_1068" data-name="Path 1068" d="M13.809,26.181s.124,2.6-1.66,3.621a3.319,3.319,0,0,0,3.32-3.32V24.044a10.255,10.255,0,0,1-1.66-2.224Z" transform="translate(-0.738 5.551)" fill="#fff"></path><path id="Path_1069" data-name="Path 1069" d="M13.809,27.157V23.1a19.031,19.031,0,0,1-1.66-4.072V30.778C13.933,29.759,13.809,27.157,13.809,27.157Z" transform="translate(-0.738 4.574)" fill="#fff"></path><path id="Path_1070" data-name="Path 1070" d="M25.445,26.269l3.483-7.941a8.216,8.216,0,0,0-2.9,2.587L21.6,31.023A9.95,9.95,0,0,0,25.445,26.269Z" transform="translate(2.566 4.33)" fill="#fff"></path><path id="Path_1071" data-name="Path 1071" d="M28.928,18.455,25.445,26.4A9.95,9.95,0,0,1,21.6,31.15a5.194,5.194,0,0,0,4.714-3.012L31.02,17.964A4.552,4.552,0,0,0,28.928,18.455Z" transform="translate(2.566 4.202)" fill="#fff"></path><path id="Path_1072" data-name="Path 1072" d="M33.612,26.269l-3.483-7.941a8.216,8.216,0,0,1,2.9,2.587L37.46,31.023A9.95,9.95,0,0,1,33.612,26.269Z" transform="translate(5.549 4.33)" fill="#fff"></path><path id="Path_1073" data-name="Path 1073" d="M30.671,18.455,34.154,26.4A9.95,9.95,0,0,0,38,31.15a5.194,5.194,0,0,1-4.714-3.012L28.579,17.964A4.548,4.548,0,0,1,30.671,18.455Z" transform="translate(5.007 4.202)" fill="#fff"></path><path id="Path_1074" data-name="Path 1074" d="M13.644,14.094c-.054,0-.105,0-.161.005.036,0,.076-.005.112-.005Z" transform="translate(-0.271 2.849)" fill="#fff"></path><path id="Path_1075" data-name="Path 1075" d="M13.73,14.094c-.054,0-.105,0-.161.005l-.012,0a1.843,1.843,0,0,0-.323.063,2.377,2.377,0,0,1,.59-.072Z" transform="translate(-0.358 2.849)" fill="#fff"></path><path id="Path_1076" data-name="Path 1076" d="M13.109,14.2c.055-.02.113-.036.17-.053Q13.19,14.171,13.109,14.2Z" transform="translate(-0.402 2.868)" fill="#fff"></path><path id="Path_1077" data-name="Path 1077" d="M13.109,14.2c.055-.02.113-.036.17-.053Q13.19,14.171,13.109,14.2Z" transform="translate(-0.402 2.868)" fill="#fff"></path><path id="Path_1078" data-name="Path 1078" d="M13.109,14.2c.055-.02.113-.036.17-.053Q13.19,14.171,13.109,14.2Z" transform="translate(-0.402 2.868)" fill="#fff"></path><path id="Path_1079" data-name="Path 1079" d="M13.812,17.433v-.907a.829.829,0,0,1,.83-.83H12.149v4.5a19.074,19.074,0,0,0,1.659,4.069V18.951a3.617,3.617,0,0,1,0-.494V17.433Z" transform="translate(-0.738 3.41)" fill="#fff"></path><path id="Path_1080" data-name="Path 1080" d="M14.2,14.094a2.377,2.377,0,0,0-.59.072c-.057.016-.115.032-.17.053-.039.013-.078.027-.116.043a1.439,1.439,0,0,0-.13.063c-.046.024-.092.051-.135.078a2.181,2.181,0,0,0-.915,1.652v4.7a19.074,19.074,0,0,0,1.659,4.069l0-7.735a.829.829,0,0,1,.83-.83h9.846a5.25,5.25,0,0,0,4.261-2.162Z" transform="translate(-0.738 2.849)" fill="#fff"></path><path id="Path_1081" data-name="Path 1081" d="M24.058,16.256H14.212a.829.829,0,0,0-.83.83l0,7.735v0l0,0a10.216,10.216,0,0,0,1.657,2.222V18.016H24.4a3.926,3.926,0,0,0,3.923-3.923A5.25,5.25,0,0,1,24.058,16.256Z" transform="translate(-0.308 2.849)" fill="#fff"></path></g><g id="Group_5" data-name="Group 5" transform="translate(72.261 5.135)"><path id="Path_1082" data-name="Path 1082" d="M68.793,4.872V9.223H59v5.189h8.484v4.351H59v8.982H54.5V4.872Z" transform="translate(-54.498 -3.97)" fill="#fff"></path><path id="Path_1083" data-name="Path 1083" d="M72.82,4.872V23.4H83.574v4.35H68.314V4.872Z" transform="translate(-49.667 -3.97)" fill="#fff"></path><path id="Path_1084" data-name="Path 1084" d="M98.677,4.872V9.223h-11.1V14.1H97.4v4.351H87.581V23.4H99.113v4.35H83.075V4.872Z" transform="translate(-44.506 -3.97)" fill="#fff"></path><path id="Path_1085" data-name="Path 1085" d="M111.966,27.746l-5.127-7.894-4.444,7.894H96.8l7.491-11.809L97.111,4.872h5.749l4.941,7.584,4.289-7.584h5.47l-7.272,11.375,7.489,11.5Z" transform="translate(-39.708 -3.97)" fill="#fff"></path><path id="Path_1086" data-name="Path 1086" d="M119.613,4.872V27.746h-4.506V4.872Z" transform="translate(-33.306 -3.97)" fill="#fff"></path><path id="Path_1087" data-name="Path 1087" d="M142.286,23.5H134.7l-1.864,4.475h-4.446L138.712,4.2h.248L149.28,27.979h-5.222Zm-1.491-3.791-2.207-5.563-2.3,5.563Z" transform="translate(-28.661 -4.204)" fill="#fff"></path><path id="Path_1088" data-name="Path 1088" d="M146.332,4.872h6.839a13.855,13.855,0,0,1,7.21,1.694,10.252,10.252,0,0,1,4.118,4.382,13.159,13.159,0,0,1,1.29,5.764,10.847,10.847,0,0,1-1.553,5.813,10.457,10.457,0,0,1-4.181,3.869,12.4,12.4,0,0,1-5.764,1.351h-7.957Zm7.18,18.524a8.133,8.133,0,0,0,5.563-1.8,6.542,6.542,0,0,0,2.051-5.191,7.439,7.439,0,0,0-1.135-4.351,6.115,6.115,0,0,0-2.641-2.238,7.477,7.477,0,0,0-2.844-.621H150.84V23.4Z" transform="translate(-22.389 -3.97)" fill="#fff"></path><path id="Path_1089" data-name="Path 1089" d="M164.087,4.872h6.837a13.857,13.857,0,0,1,7.211,1.694,10.252,10.252,0,0,1,4.118,4.382,13.158,13.158,0,0,1,1.29,5.764,10.836,10.836,0,0,1-1.555,5.813,10.445,10.445,0,0,1-4.18,3.869,12.4,12.4,0,0,1-5.766,1.351h-7.956Zm7.18,18.524a8.138,8.138,0,0,0,5.563-1.8,6.542,6.542,0,0,0,2.051-5.191,7.449,7.449,0,0,0-1.135-4.351,6.123,6.123,0,0,0-2.641-2.238,7.482,7.482,0,0,0-2.844-.621h-3.668V23.4Z" transform="translate(-16.181 -3.97)" fill="#fff"></path><path id="Path_1090" data-name="Path 1090" d="M182.375,10.593a11.847,11.847,0,0,1,4.258-4.3,11.409,11.409,0,0,1,11.656,0,12.1,12.1,0,0,1,4.288,4.3,11.407,11.407,0,0,1,0,11.654,11.93,11.93,0,0,1-4.288,4.243,11.634,11.634,0,0,1-11.672,0,11.721,11.721,0,0,1-4.242-4.243,11.6,11.6,0,0,1,0-11.654Zm4.041,9.479a7.117,7.117,0,0,0,2.579,2.657,6.9,6.9,0,0,0,3.621.98,6.546,6.546,0,0,0,3.512-.98,6.912,6.912,0,0,0,2.486-2.641,7.6,7.6,0,0,0,.9-3.683,7.541,7.541,0,0,0-.933-3.729,7.1,7.1,0,0,0-2.532-2.657,6.962,6.962,0,0,0-7.118,0,7.1,7.1,0,0,0-2.533,2.657,7.555,7.555,0,0,0-.931,3.729A7.316,7.316,0,0,0,186.415,20.071Z" transform="translate(-10.336 -4.035)" fill="#fff"></path><path id="Path_1091" data-name="Path 1091" d="M222.067,5.106V28.912h-.124L205.936,14.46l.094,13.519h-4.57V4.2h.188l15.974,14.669L217.53,5.106Z" transform="translate(-3.113 -4.204)" fill="#fff"></path><path id="Path_1092" data-name="Path 1092" d="M228.636,8.788a3.922,3.922,0,0,0-2.316.591,2.037,2.037,0,0,0-.823,1.772,2.329,2.329,0,0,0,1.2,1.911,14.842,14.842,0,0,0,3.185,1.568,13.265,13.265,0,0,1,2.765,1.352,6.064,6.064,0,0,1,1.911,2.1,6.763,6.763,0,0,1,.763,3.388,6.189,6.189,0,0,1-.918,3.278,6.389,6.389,0,0,1-2.688,2.393,9.346,9.346,0,0,1-4.226.887,14.116,14.116,0,0,1-4.072-.606,12.748,12.748,0,0,1-3.761-1.849l1.989-3.513a10.863,10.863,0,0,0,2.7,1.431,8.046,8.046,0,0,0,2.734.559,4.925,4.925,0,0,0,2.487-.606,2.1,2.1,0,0,0,1.055-1.973q0-1.771-3.326-3.077a29.9,29.9,0,0,1-3.263-1.491,6.719,6.719,0,0,1-2.253-2.051,5.66,5.66,0,0,1-.947-3.357,6.183,6.183,0,0,1,1.942-4.756,7.892,7.892,0,0,1,5.175-1.957,13.519,13.519,0,0,1,4.258.575,14.542,14.542,0,0,1,3.326,1.632l-1.71,3.45A11.128,11.128,0,0,0,228.636,8.788Z" transform="translate(3.247 -4.003)" fill="#fff"></path></g><g id="Group_6" data-name="Group 6" transform="translate(72.186 39.534)"><path id="Path_1093" data-name="Path 1093" d="M60.915,29.948v1.4h-5.01v3.47H60.3v1.4H55.905v4.632H54.442V29.948Z" transform="translate(-54.442 -29.601)" fill="#fff"></path><path id="Path_1094" data-name="Path 1094" d="M67.774,32.665a5.711,5.711,0,0,1,2.03-2.045,5.45,5.45,0,0,1,5.561,0,5.774,5.774,0,0,1,2.045,2.045,5.345,5.345,0,0,1,.761,2.776,5.406,5.406,0,0,1-.754,2.792,5.572,5.572,0,0,1-2.045,2.029,5.546,5.546,0,0,1-8.352-4.821A5.377,5.377,0,0,1,67.774,32.665Zm1.3,4.859a4.07,4.07,0,0,0,1.487,1.509,4.008,4.008,0,0,0,5.567-1.5,4.336,4.336,0,0,0-.007-4.188A4.07,4.07,0,0,0,74.64,31.82a4.027,4.027,0,0,0-4.1.007,4.06,4.06,0,0,0-1.471,1.532,4.247,4.247,0,0,0-.536,2.1A4.1,4.1,0,0,0,69.071,37.524Z" transform="translate(-50.044 -29.633)" fill="#fff"></path><path id="Path_1095" data-name="Path 1095" d="M89.774,40.857l-2.564-4.029a3.037,3.037,0,0,1-.363.015H85.232v4.014H83.769V29.948H86.68a4.815,4.815,0,0,1,1.992.393,3.126,3.126,0,0,1,1.374,1.154,3.275,3.275,0,0,1,.5,1.833,3.923,3.923,0,0,1-.445,1.857,2.9,2.9,0,0,1-1.366,1.282l2.747,4.39Zm-1.259-6.05a2.14,2.14,0,0,0,.521-1.418,2.206,2.206,0,0,0-.22-.95,1.864,1.864,0,0,0-.694-.777,2.156,2.156,0,0,0-1.2-.309h-1.69v4.073h1.584A2.1,2.1,0,0,0,88.514,34.807Z" transform="translate(-44.188 -29.601)" fill="#fff"></path><path id="Path_1096" data-name="Path 1096" d="M115.1,29.948v1.4h-5.628V34.67H114.5v1.4h-5.025v3.365h5.84v1.418h-7.3V29.948Z" transform="translate(-35.713 -29.601)" fill="#fff"></path><path id="Path_1097" data-name="Path 1097" d="M123.436,29.948v9.491h5.554v1.418h-7.017V29.948Z" transform="translate(-30.83 -29.601)" fill="#fff"></path><path id="Path_1098" data-name="Path 1098" d="M142.683,29.948v1.4h-5.628V34.67h5.025v1.4h-5.025v3.365h5.84v1.418h-7.3V29.948Z" transform="translate(-26.069 -29.601)" fill="#fff"></path><path id="Path_1099" data-name="Path 1099" d="M160.406,29.691V40.947h-1.45V33.886l-4.014,5.689h-.03l-3.938-5.493v6.866h-1.418V29.691h.015l5.372,7.605,5.447-7.605Z" transform="translate(-21.186 -29.691)" fill="#fff"></path><path id="Path_1100" data-name="Path 1100" d="M173.676,29.948v1.4h-5.629V34.67h5.026v1.4h-5.026v3.365h5.84v1.418h-7.3V29.948Z" transform="translate(-15.232 -29.601)" fill="#fff"></path><path id="Path_1101" data-name="Path 1101" d="M190.055,30.034V41.306h-.045L182,33.172l.03,7.771h-1.478V29.7h.074l8,8.223-.03-7.891Z" transform="translate(-10.35 -29.687)" fill="#fff"></path><path id="Path_1102" data-name="Path 1102" d="M203.233,29.948v1.4h-2.927v9.506h-1.464V31.352h-2.852v-1.4Z" transform="translate(-4.951 -29.601)" fill="#fff"></path><path id="Path_1103" data-name="Path 1103" d="M209.657,32.665a5.712,5.712,0,0,1,2.03-2.045,5.45,5.45,0,0,1,5.561,0,5.774,5.774,0,0,1,2.045,2.045,5.345,5.345,0,0,1,.761,2.776,5.406,5.406,0,0,1-.754,2.792,5.562,5.562,0,0,1-2.045,2.029,5.546,5.546,0,0,1-8.352-4.821A5.377,5.377,0,0,1,209.657,32.665Zm1.3,4.859a4.07,4.07,0,0,0,1.487,1.509,4.008,4.008,0,0,0,5.567-1.5A4.336,4.336,0,0,0,218,33.344a4.06,4.06,0,0,0-1.479-1.524,4.027,4.027,0,0,0-4.1.007,4.06,4.06,0,0,0-1.471,1.532,4.247,4.247,0,0,0-.536,2.1A4.1,4.1,0,0,0,210.954,37.524Z" transform="translate(-0.436 -29.633)" fill="#fff"></path><path id="Path_1104" data-name="Path 1104" d="M231.657,40.857l-2.564-4.029a3.052,3.052,0,0,1-.363.015h-1.614v4.014h-1.463V29.948h2.911a4.815,4.815,0,0,1,1.992.393,3.126,3.126,0,0,1,1.374,1.154,3.275,3.275,0,0,1,.5,1.833,3.923,3.923,0,0,1-.445,1.857,2.9,2.9,0,0,1-1.366,1.282l2.747,4.39Zm-1.259-6.05a2.14,2.14,0,0,0,.521-1.418,2.226,2.226,0,0,0-.22-.95,1.864,1.864,0,0,0-.694-.777,2.156,2.156,0,0,0-1.2-.309h-1.69v4.073H228.7A2.1,2.1,0,0,0,230.4,34.807Z" transform="translate(5.42 -29.601)" fill="#fff"></path></g></g></svg>