<svg width="200" height="125" viewBox="0 0 475 397" fill="none" xmlns="http://www.w3.org/2000/svg">
<g clip-path="url(#clip0)">
<path d="M184.5 176L156.6 172.8H85.8001C80.4001 172.8 76.1001 168.2 76.1001 162.5V112.8C76.1001 107.1 80.5001 102.5 85.8001 102.5H164C169.4 102.5 173.7 107.1 173.7 112.8V152.4L184.5 176ZM85.8001 104.5C81.6001 104.5 78.1001 108.2 78.1001 112.8V162.5C78.1001 167.1 81.5001 170.8 85.8001 170.8H156.8L181.2 173.6L171.7 152.9V112.8C171.7 108.2 168.3 104.5 164 104.5H85.8001V104.5Z" fill="#1795FF"/>
<path d="M152.8 124.5H96.8C96.2 124.5 95.8 124 95.8 123.5C95.8 122.9 96.3 122.5 96.8 122.5H152.8C153.4 122.5 153.8 123 153.8 123.5C153.8 124.1 153.4 124.5 152.8 124.5Z" fill="#1795FF"/>
<path d="M152.8 140.2H96.8C96.2 140.2 95.8 139.7 95.8 139.2C95.8 138.6 96.3 138.2 96.8 138.2H152.8C153.4 138.2 153.8 138.7 153.8 139.2C153.8 139.7 153.4 140.2 152.8 140.2Z" fill="#1795FF"/>
<path d="M152.8 156.7H96.8C96.2 156.7 95.8 156.2 95.8 155.7C95.8 155.1 96.3 154.7 96.8 154.7H152.8C153.4 154.7 153.8 155.2 153.8 155.7C153.8 156.2 153.4 156.7 152.8 156.7Z" fill="#1795FF"/>
<g opacity="0.35">
<path opacity="0.35" d="M152.8 191.1H71.9001C66.0001 191.1 61.3 186 61.3 179.8V97.6C61.3 92.4 65.3 88.2 70.1 88.2H171.4C172 88.2 172.4 88.7 172.4 89.2C172.4 89.8 171.9 90.2 171.4 90.2H70.1C66.3 90.2 63.3 93.5 63.3 97.6V179.7C63.3 184.8 67.2001 189 71.9001 189H152.8C153.4 189 153.8 189.5 153.8 190C153.8 190.6 153.3 191.1 152.8 191.1Z" fill="#1795FF"/>
</g>
<g opacity="0.35">
<path opacity="0.35" d="M153.8 203.7H50.6C43.3 203.7 37.3 197.3 37.3 189.5V84.7C37.3 78.2 42.2 73 48.3 73H177.6C178.2 73 178.6 73.5 178.6 74C178.6 74.5 178.1 75 177.6 75H48.3C43.4 75 39.3 79.3 39.3 84.7V189.5C39.3 196.2 44.3 201.6 50.5 201.6H153.8C154.4 201.6 154.8 202.1 154.8 202.6C154.9 203.2 154.4 203.7 153.8 203.7Z" fill="#1795FF"/>
</g>
<path d="M399.5 263.2H330.1C325.3 263.2 321.4 259.3 321.4 254.5V221.7L311.7 201.9L336.7 204.6H399.6C404.4 204.6 408.3 208.5 408.3 213.3V254.4C408.2 259.3 404.3 263.2 399.5 263.2ZM315.1 204.3L323.4 221.2V254.4C323.4 258.1 326.4 261.1 330.1 261.1H399.5C403.2 261.1 406.2 258.1 406.2 254.4V213.3C406.2 209.6 403.2 206.6 399.5 206.6H336.5L315.1 204.3Z" fill="#1795FF"/>
<path d="M389.7 246.6H340C339.4 246.6 339 246.1 339 245.6C339 245 339.5 244.6 340 244.6H389.7C390.3 244.6 390.7 245.1 390.7 245.6C390.8 246.1 390.3 246.6 389.7 246.6Z" fill="#1795FF"/>
<path d="M389.7 233.6H340C339.4 233.6 339 233.1 339 232.6C339 232 339.5 231.6 340 231.6H389.7C390.3 231.6 390.7 232.1 390.7 232.6C390.8 233.2 390.3 233.6 389.7 233.6Z" fill="#1795FF"/>
<path d="M389.7 219.9H340C339.4 219.9 339 219.4 339 218.9C339 218.3 339.5 217.9 340 217.9H389.7C390.3 217.9 390.7 218.4 390.7 218.9C390.8 219.5 390.3 219.9 389.7 219.9Z" fill="#1795FF"/>
<g opacity="0.35">
<path opacity="0.35" d="M413.5 275H323.5C322.9 275 322.5 274.5 322.5 274C322.5 273.4 323 273 323.5 273H413.5C416.8 273 419.4 270.3 419.4 267.1V199.1C419.4 195 416 191.6 411.9 191.6H340C339.4 191.6 339 191.1 339 190.6C339 190 339.5 189.6 340 189.6H411.8C417.1 189.6 421.3 193.9 421.3 199.1V267.1C421.4 271.4 417.9 275 413.5 275Z" fill="#1795FF"/>
</g>
<g opacity="0.35">
<path opacity="0.35" d="M432.8 287.6H318C317.4 287.6 317 287.1 317 286.6C317 286 317.5 285.6 318 285.6H432.8C437.1 285.6 440.7 282.1 440.7 277.7V190.8C440.7 185.4 436.3 180.9 430.8 180.9H339.1C338.5 180.9 338.1 180.4 338.1 179.9C338.1 179.4 338.6 178.9 339.1 178.9H430.8C437.4 178.9 442.7 184.2 442.7 190.8V277.7C442.7 283.2 438.3 287.6 432.8 287.6Z" fill="#1795FF"/>
</g>
<path d="M138.3 231.4H107.1C100.7 231.4 95.3999 236.7 95.3999 243.1V274.3C95.3999 280.7 100.7 286 107.1 286H138.3C144.7 286 150 280.7 150 274.3V254.8L165.6 229.4L138.3 231.4ZM136.5 270.9L135.3 272.2C134.8 272.6 134.2 273 133.6 273.3C133 273.5 132.5 273.7 131.9 273.8C131.6 273.8 125.4 274.5 117.8 265.9C112.2 259.7 110.2 255.1 110.7 250.1C110.8 249.5 110.9 248.9 111.1 248.2C111.3 247.5 111.7 246.9 112 246.3L113.2 245C114 244.1 115.4 244 116.2 244.9L120.3 249.5C121.1 250.4 121.1 251.9 120.2 252.9L119.5 253.7L118.1 255.2C118.2 255.3 118.2 255.5 118.3 255.6C119 257.1 120 259.1 121.9 261.2C123.8 263.3 125.6 264.4 126.9 265.2C127 265.3 127.2 265.4 127.3 265.5L129.4 263.2C130.2 262.3 131.6 262.2 132.4 263.1L136.5 267.7C137.3 268.4 137.3 269.9 136.5 270.9Z" fill="#0A2038"/>
<g opacity="0.19">
<g opacity="0.19">
<path opacity="0.19" d="M122.9 322.5C122.9 328.7 114.9 342.5 110.2 350.2C108.6 352.7 104.9 352.7 103.4 350.2C98.7 342.6 90.7 328.8 90.7 322.5C90.7 313.6 97.9 306.4 106.8 306.4C115.7 306.4 122.9 313.6 122.9 322.5Z" fill="#1795FF"/>
</g>
<g opacity="0.19">
<path opacity="0.19" d="M106.8 333.5C112.433 333.5 117 328.933 117 323.3C117 317.667 112.433 313.1 106.8 313.1C101.167 313.1 96.5999 317.667 96.5999 323.3C96.5999 328.933 101.167 333.5 106.8 333.5Z" fill="#0A2038"/>
</g>
</g>
<g opacity="0.09">
<g opacity="0.09">
<path opacity="0.09" d="M75.7999 270.9V252L63.0999 259.5L75.7999 270.9Z" fill="#1795FF"/>
</g>
<g opacity="0.09">
<path opacity="0.09" d="M58.1 262.4L54.5 260.3L40.5 272.9C40.8 274.8 42.4 276.3 44.4 276.3H72C74 276.3 75.6 274.8 75.9 272.9L61.9 260.3L58.1 262.4Z" fill="#1795FF"/>
</g>
<g opacity="0.09">
<path opacity="0.09" d="M40.6999 250.5L54.4999 258.6C54.6999 258.6 54.7999 258.7 54.8999 258.8L57.9999 260.6L61.0999 258.8C61.1999 258.7 61.3999 258.6 61.4999 258.6L75.2999 250.5C75.3999 250.4 75.4999 250.4 75.5999 250.4C75.4999 248.3 73.7999 246.7 71.6999 246.7H44.2999C42.1999 246.7 40.4999 248.3 40.3999 250.4C40.4999 250.4 40.5999 250.5 40.6999 250.5Z" fill="#1795FF"/>
</g>
<g opacity="0.09">
<path opacity="0.09" d="M40.3999 252V270.9L53.0999 259.5L40.3999 252Z" fill="#1795FF"/>
</g>
</g>
<path d="M310.7 150.5H341.5C347.8 150.5 353 145.3 353 139V108.2C353 101.9 347.8 96.7002 341.5 96.7002H310.7C304.4 96.7002 299.2 101.9 299.2 108.2V127.4L283.8 152.4L310.7 150.5Z" fill="#1795FF"/>
<path d="M339.7 131.8V116.5L329.3 122.6L339.7 131.8Z" fill="#0A2038"/>
<path d="M325.3 124.9L322.4 123.2L311 133.4C311.2 135 312.5 136.2 314.2 136.2H336.5C338.1 136.2 339.4 135 339.7 133.4L328.4 123.2L325.3 124.9Z" fill="#0A2038"/>
<path d="M311.3 115.3L322.5 121.8C322.6 121.8 322.7 121.9 322.8 122L325.3 123.5L327.8 122C327.9 121.9 328 121.8 328.1 121.8L339.3 115.3C339.4 115.2 339.5 115.2 339.6 115.2C339.5 113.5 338.1 112.2 336.4 112.2H314.1C312.4 112.2 311 113.5 310.9 115.2C311.1 115.3 311.2 115.3 311.3 115.3Z" fill="#0A2038"/>
<path d="M311 116.5V131.8L321.3 122.6L311 116.5Z" fill="#0A2038"/>
<g opacity="0.19">
<g opacity="0.19">
<path opacity="0.19" d="M410.1 117.7C410.1 123.9 402.1 137.7 397.4 145.4C395.8 147.9 392.1 147.9 390.6 145.4C385.9 137.8 377.9 124 377.9 117.7C377.9 108.8 385.1 101.6 394 101.6C402.9 101.7 410.1 108.9 410.1 117.7Z" fill="#1795FF"/>
</g>
<g opacity="0.19">
<path opacity="0.19" d="M394 128.8C399.633 128.8 404.2 124.233 404.2 118.6C404.2 112.967 399.633 108.4 394 108.4C388.367 108.4 383.8 112.967 383.8 118.6C383.8 124.233 388.367 128.8 394 128.8Z" fill="#0A2038"/>
</g>
</g>
<path d="M365.7 69.2001L364.5 70.5001C364 70.9001 363.4 71.3001 362.8 71.6001C362.2 71.8001 361.7 72.0001 361.1 72.1001C360.8 72.1001 354.6 72.8001 347 64.2001C341.4 58.0001 339.4 53.4001 339.9 48.4001C340 47.8001 340.1 47.2001 340.3 46.5001C340.5 45.8001 340.9 45.2001 341.2 44.6001L342.4 43.3001C343.2 42.4001 344.6 42.3001 345.4 43.2001L349.5 47.8001C350.3 48.7001 350.3 50.2001 349.4 51.2001L348.7 52.0001L347.3 53.5001C347.4 53.6001 347.4 53.8001 347.5 53.9001C348.2 55.4001 349.2 57.4001 351.1 59.5001C353 61.6001 354.8 62.7001 356.1 63.5001C356.2 63.6001 356.4 63.7001 356.5 63.8001L358.6 61.5001C359.4 60.6001 360.8 60.5001 361.6 61.4001L365.7 66.0001C366.5 66.7001 366.5 68.2001 365.7 69.2001Z" fill="#0A2038"/>
<path d="M328.4 389.3C332.6 389.3 335.7 385.5 334.9 381.4L322.5 321.5C320.7 312.4 313.9 290 313.7 288.8C310.6 270.8 294.9 257 275.9 257H213.1C192.2 257 175.2 273.7 174.8 294.5C174.8 295 170 313.9 169 318.5L155.4 381.2C154.5 385.3 157.7 389.2 161.9 389.2L161.8 389.7H314.2V389.2H328.4V389.3Z" fill="#41DD7E"/>
<path d="M294.9 324.5H293.9V385.7H294.9V324.5Z" fill="#EAEAEA"/>
<path d="M195.2 324.5H194.2V385.7H195.2V324.5Z" fill="#EAEAEA"/>
<path d="M262.7 148.7C265.1 145.3 266.5 141.2 266.5 136.7C266.5 125.2 257.2 115.8 245.6 115.8C234.1 115.8 224.7 125.1 224.7 136.7C224.7 141 226 145 228.2 148.3C217.3 154.1 209.9 165.5 209.9 178.6V196.9C209.9 208.3 219.3 217.7 230.7 217.7H262.7C272.3 217.7 280.2 209.8 280.2 200.2V178.6C280.2 165.8 273.1 154.6 262.7 148.7Z" fill="#262127"/>
<path d="M270.6 191.8V184.8C270.6 184.4 270.6 183.9 270.6 183.5C264.5 182.9 259.3 178.6 257.6 172.5L254.4 160.9C254.3 160.9 254.2 160.8 254 160.8C249.6 176.1 235.3 186.6 219.3 186.3V191.8H219.1C214.6 191.8 210.9 195.5 210.9 200C210.9 204.5 214.6 208.2 219.1 208.2H219.3V209.2C219.3 218.3 224 226.3 231.2 230.8V262.2H258V231.2C265.5 226.7 270.6 218.5 270.6 209.1V208.1C275 208 278.6 204.4 278.6 199.9C278.6 195.4 275 191.9 270.6 191.8Z" fill="#FCCABE"/>
<path d="M231.2 242.3L258.2 231.1C249.7 234.2 240.3 234.2 231.8 231.1L231.1 230.9" fill="#F29680"/>
<g opacity="0.57">
<path opacity="0.57" d="M231.8 210.3H226.8C225.2 210.3 223.9 209 223.9 207.4C223.9 205.8 225.2 204.5 226.8 204.5H231.8C233.4 204.5 234.7 205.8 234.7 207.4C234.7 209 233.4 210.3 231.8 210.3Z" fill="#F29680"/>
</g>
<g opacity="0.57">
<path opacity="0.57" d="M262 210.3H257C255.4 210.3 254.1 209 254.1 207.4C254.1 205.8 255.4 204.5 257 204.5H262C263.6 204.5 264.9 205.8 264.9 207.4C264.9 209 263.6 210.3 262 210.3Z" fill="#F29680"/>
</g>
<path d="M232.9 202.6C232.1 202.6 231.4 201.9 231.4 201.1V198.1C231.4 197.3 232.1 196.6 232.9 196.6C233.7 196.6 234.4 197.3 234.4 198.1V201.1C234.4 201.9 233.8 202.6 232.9 202.6Z" fill="black"/>
<path d="M255.5 202.6C254.7 202.6 254 201.9 254 201.1V198.1C254 197.3 254.7 196.6 255.5 196.6C256.3 196.6 257 197.3 257 198.1V201.1C257 201.9 256.3 202.6 255.5 202.6Z" fill="black"/>
<path d="M236.4 190.7C235.9 191.1 235.2 191.2 234.5 191.3C233.8 191.4 233.1 191.6 232.5 191.7C231.9 191.9 231.2 192.1 230.5 192.3C229.8 192.5 229.1 192.8 228.5 192.7C227.9 192.6 227.6 192 228 191.1C228.4 190.2 229.7 189 231.7 188.5C233.7 188 235.4 188.4 236.1 189C236.9 189.7 236.9 190.4 236.4 190.7Z" fill="#262127"/>
<path d="M261.5 192.9C260.9 193 260.2 192.7 259.6 192.5C258.9 192.3 258.3 192 257.7 191.8C257.1 191.6 256.4 191.4 255.7 191.3C255 191.1 254.3 191 253.8 190.6C253.4 190.2 253.3 189.5 254.2 189C255 188.4 256.7 188.1 258.7 188.7C260.7 189.3 261.9 190.6 262.2 191.5C262.5 192.3 262.1 192.8 261.5 192.9Z" fill="#262127"/>
<path d="M247.4 207.9H243.1C241.9 207.9 241 207 241 205.8V204.4C241 203.6 241.6 203 242.4 203C243.1 203 243.6 202.4 243.6 201.8V195.7C243.6 195.3 243.9 195 244.3 195C244.7 195 245 195.3 245 195.7V201.8C245 203.3 243.8 204.5 242.3 204.5V205.8C242.3 206.2 242.6 206.5 243 206.5H247.3C247.7 206.5 248 206.8 248 207.2C248.2 207.6 247.8 207.9 247.4 207.9Z" fill="#F29680"/>
<path d="M281 196.7C281 203.1 278.3 208.3 274.9 208.3C271.5 208.3 268.8 203.1 268.8 196.7C268.8 190.3 271.5 185.1 274.9 185.1C278.3 185.1 281 190.3 281 196.7Z" fill="#252F33"/>
<path d="M281.5 196.7C281.5 202.9 279.1 208 276.1 208C273.1 208 270.7 203 270.7 196.7C270.7 190.5 273.1 185.4 276.1 185.4C279.1 185.5 281.5 190.5 281.5 196.7Z" fill="#A8A5A5"/>
<path d="M279.5 196.7C279.5 199.9 278.2 202.5 276.5 202.5C274.8 202.5 273.5 199.9 273.5 196.7C273.5 193.5 274.8 190.9 276.5 190.9C278.1 190.9 279.5 193.5 279.5 196.7Z" fill="#252F33"/>
<path d="M215.3 208.3C218.669 208.3 221.4 203.107 221.4 196.7C221.4 190.294 218.669 185.1 215.3 185.1C211.931 185.1 209.2 190.294 209.2 196.7C209.2 203.107 211.931 208.3 215.3 208.3Z" fill="#252F33"/>
<path d="M208.7 196.7C208.7 190.5 211.1 185.4 214.1 185.4C217.1 185.4 219.5 190.4 219.5 196.7C219.5 202.9 217.1 208 214.1 208C211.1 208 208.7 202.9 208.7 196.7Z" fill="#A8A5A5"/>
<path d="M210.7 196.7C210.7 193.5 212 190.9 213.7 190.9C215.4 190.9 216.7 193.5 216.7 196.7C216.7 199.9 215.4 202.5 213.7 202.5C212.1 202.5 210.7 199.9 210.7 196.7Z" fill="#252F33"/>
<path d="M261.6 218.8H248.4V217.8H261.6C264.8 217.8 267.7 216.1 268.6 213.7L274.6 197.4L275.6 197.8L269.6 214.1C268.5 216.9 265.3 218.8 261.6 218.8Z" fill="#252F33"/>
<path d="M248 219.9H243.6C242.7 219.9 241.9 219.3 241.9 218.5C241.9 217.7 242.7 217.1 243.6 217.1H248C248.9 217.1 249.7 217.7 249.7 218.5C249.7 219.3 249 219.9 248 219.9Z" fill="#A8A5A5"/>
<path d="M277.7 189.1H275.7V177.1C275.7 164.1 265.1 153.5 252.1 153.5H240.3C226.1 153.5 214.6 165 214.6 179.2V188.1H212.6V179.2C212.6 163.9 225 151.5 240.3 151.5H252C266.2 151.5 277.7 163 277.7 177.2V189.1Z" fill="#A8A5A5"/>
<path d="M468.5 396.7H5.4C2.4 396.7 0 394.6 0 392.1C0 389.6 2.4 387.5 5.4 387.5H468.5C471.5 387.5 473.9 389.6 473.9 392.1C473.9 394.6 471.5 396.7 468.5 396.7Z" fill="#158B47"/>
<path d="M401.2 357.5C401.1 352.6 397.2 348.8 392.3 348.6C390.4 348.5 388.5 348.5 386.6 348.6V343.8C386.6 343.4 386.2 343 385.8 343H347.6C347.2 343 346.9 343.3 346.9 343.7V382C346.9 385.2 349.5 387.8 352.7 387.8H380.8C384 387.8 386.6 385.2 386.6 382V380.7C388.4 380.7 390.3 380.7 392.1 380.7C396.9 380.6 401 376.7 401.2 372C401.3 367.2 401.3 362.3 401.2 357.5ZM398 371.7C398 374.6 395.7 377.1 392.9 377.5C392 377.6 391.1 377.6 390.2 377.6C389 377.6 387.8 377.6 386.6 377.6V351.7C388.5 351.7 390.3 351.7 392.2 351.7C395.4 351.9 398 354.4 398 357.7C398.1 362.3 398.1 367 398 371.7Z" fill="#0A2038"/>
<path d="M307.4 383.7H182.8C178.5 383.7 174.9 380.2 174.9 375.8V306C174.9 301.7 178.4 298.1 182.8 298.1H307.4C311.7 298.1 315.3 301.6 315.3 306V375.9C315.3 380.2 311.8 383.7 307.4 383.7Z" fill="#1E5FA6"/>
<path d="M312.9 387.6H177.3C176 387.6 174.9 386.5 174.9 385.2V379.3H315.2V385.2C315.3 386.6 314.2 387.6 312.9 387.6Z" fill="#003A7A"/>
<path d="M245.1 353.1C251.009 353.1 255.8 348.31 255.8 342.4C255.8 336.491 251.009 331.7 245.1 331.7C239.19 331.7 234.4 336.491 234.4 342.4C234.4 348.31 239.19 353.1 245.1 353.1Z" fill="#003A7A"/>
<g opacity="0.2">
<path opacity="0.2" d="M474.8 154.6H464.8V164.6H474.8V154.6Z" fill="#38BF6D"/>
</g>
<g opacity="0.2">
<path opacity="0.2" d="M446.7 154.6H436.7V164.6H446.7V154.6Z" fill="#38BF6D"/>
</g>
<g opacity="0.2">
<path opacity="0.2" d="M432.6 154.6H422.6V164.6H432.6V154.6Z" fill="#38BF6D"/>
</g>
<g opacity="0.2">
<path opacity="0.2" d="M418.6 154.6H408.6V164.6H418.6V154.6Z" fill="#38BF6D"/>
</g>
<g opacity="0.2">
<path opacity="0.2" d="M404.5 154.6H394.5V164.6H404.5V154.6Z" fill="#38BF6D"/>
</g>
<g opacity="0.2">
<path opacity="0.2" d="M390.5 154.6H380.5V164.6H390.5V154.6Z" fill="#38BF6D"/>
</g>
<g opacity="0.2">
<path opacity="0.2" d="M376.4 154.6H366.4V164.6H376.4V154.6Z" fill="#38BF6D"/>
</g>
<g opacity="0.2">
<path opacity="0.2" d="M348.3 154.6H338.3V164.6H348.3V154.6Z" fill="#38BF6D"/>
</g>
<g opacity="0.2">
<path opacity="0.2" d="M334.2 154.6H324.2V164.6H334.2V154.6Z" fill="#38BF6D"/>
</g>
<g opacity="0.2">
<path opacity="0.2" d="M320.2 154.6H310.2V164.6H320.2V154.6Z" fill="#38BF6D"/>
</g>
<g opacity="0.2">
<path opacity="0.2" d="M292.1 154.6H282.1V164.6H292.1V154.6Z" fill="#38BF6D"/>
</g>
<g opacity="0.2">
<path opacity="0.2" d="M278 154.6H268V164.6H278V154.6Z" fill="#38BF6D"/>
</g>
<g opacity="0.2">
<path opacity="0.2" d="M249.9 154.6H239.9V164.6H249.9V154.6Z" fill="#38BF6D"/>
</g>
<g opacity="0.2">
<path opacity="0.2" d="M235.8 154.6H225.8V164.6H235.8V154.6Z" fill="#38BF6D"/>
</g>
<g opacity="0.2">
<path opacity="0.2" d="M221.8 154.6H211.8V164.6H221.8V154.6Z" fill="#38BF6D"/>
</g>
<g opacity="0.2">
<path opacity="0.2" d="M207.7 154.6H197.7V164.6H207.7V154.6Z" fill="#38BF6D"/>
</g>
<g opacity="0.2">
<path opacity="0.2" d="M193.7 154.6H183.7V164.6H193.7V154.6Z" fill="#38BF6D"/>
</g>
<g opacity="0.2">
<path opacity="0.2" d="M165.6 154.6H155.6V164.6H165.6V154.6Z" fill="#38BF6D"/>
</g>
<g opacity="0.2">
<path opacity="0.2" d="M151.5 154.6H141.5V164.6H151.5V154.6Z" fill="#38BF6D"/>
</g>
<g opacity="0.2">
<path opacity="0.2" d="M137.4 154.6H127.4V164.6H137.4V154.6Z" fill="#38BF6D"/>
</g>
<g opacity="0.2">
<path opacity="0.2" d="M123.4 154.6H113.4V164.6H123.4V154.6Z" fill="#38BF6D"/>
</g>
<g opacity="0.2">
<path opacity="0.2" d="M109.3 154.6H99.3V164.6H109.3V154.6Z" fill="#38BF6D"/>
</g>
<g opacity="0.2">
<path opacity="0.2" d="M67.1999 154.6H57.2V164.6H67.1999V154.6Z" fill="#38BF6D"/>
</g>
<g opacity="0.2">
<path opacity="0.2" d="M53.1001 154.6H43.1001V164.6H53.1001V154.6Z" fill="#38BF6D"/>
</g>
<g opacity="0.2">
<path opacity="0.2" d="M39 154.6H29V164.6H39V154.6Z" fill="#38BF6D"/>
</g>
<g opacity="0.2">
<path opacity="0.2" d="M25 154.6H15V164.6H25V154.6Z" fill="#38BF6D"/>
</g>
<g opacity="0.2">
<path opacity="0.2" d="M474.8 140.6H464.8V150.6H474.8V140.6Z" fill="#38BF6D"/>
</g>
<g opacity="0.2">
<path opacity="0.2" d="M460.8 140.6H450.8V150.6H460.8V140.6Z" fill="#38BF6D"/>
</g>
<g opacity="0.2">
<path opacity="0.2" d="M446.7 140.6H436.7V150.6H446.7V140.6Z" fill="#38BF6D"/>
</g>
<g opacity="0.2">
<path opacity="0.2" d="M432.6 140.6H422.6V150.6H432.6V140.6Z" fill="#38BF6D"/>
</g>
<path d="M418.6 140.6H408.6V150.6H418.6V140.6Z" fill="#38BF6D"/>
<g opacity="0.2">
<path opacity="0.2" d="M390.5 140.6H380.5V150.6H390.5V140.6Z" fill="#38BF6D"/>
</g>
<g opacity="0.2">
<path opacity="0.2" d="M376.4 140.6H366.4V150.6H376.4V140.6Z" fill="#38BF6D"/>
</g>
<g opacity="0.2">
<path opacity="0.2" d="M334.2 140.6H324.2V150.6H334.2V140.6Z" fill="#38BF6D"/>
</g>
<g opacity="0.2">
<path opacity="0.2" d="M320.2 140.6H310.2V150.6H320.2V140.6Z" fill="#38BF6D"/>
</g>
<g opacity="0.2">
<path opacity="0.2" d="M306.1 140.6H296.1V150.6H306.1V140.6Z" fill="#38BF6D"/>
</g>
<g opacity="0.2">
<path opacity="0.2" d="M292.1 140.6H282.1V150.6H292.1V140.6Z" fill="#38BF6D"/>
</g>
<g opacity="0.2">
<path opacity="0.2" d="M278 140.6H268V150.6H278V140.6Z" fill="#38BF6D"/>
</g>
<g opacity="0.2">
<path opacity="0.2" d="M264 140.6H254V150.6H264V140.6Z" fill="#38BF6D"/>
</g>
<g opacity="0.2">
<path opacity="0.2" d="M249.9 140.6H239.9V150.6H249.9V140.6Z" fill="#38BF6D"/>
</g>
<g opacity="0.2">
<path opacity="0.2" d="M235.8 140.6H225.8V150.6H235.8V140.6Z" fill="#38BF6D"/>
</g>
<g opacity="0.2">
<path opacity="0.2" d="M207.7 140.6H197.7V150.6H207.7V140.6Z" fill="#38BF6D"/>
</g>
<g opacity="0.2">
<path opacity="0.2" d="M193.7 140.6H183.7V150.6H193.7V140.6Z" fill="#38BF6D"/>
</g>
<g opacity="0.2">
<path opacity="0.2" d="M179.6 140.6H169.6V150.6H179.6V140.6Z" fill="#38BF6D"/>
</g>
<g opacity="0.2">
<path opacity="0.2" d="M151.5 140.6H141.5V150.6H151.5V140.6Z" fill="#38BF6D"/>
</g>
<g opacity="0.2">
<path opacity="0.2" d="M137.4 140.6H127.4V150.6H137.4V140.6Z" fill="#38BF6D"/>
</g>
<g opacity="0.2">
<path opacity="0.2" d="M123.4 140.6H113.4V150.6H123.4V140.6Z" fill="#38BF6D"/>
</g>
<g opacity="0.2">
<path opacity="0.2" d="M109.3 140.6H99.3V150.6H109.3V140.6Z" fill="#38BF6D"/>
</g>
<g opacity="0.2">
<path opacity="0.2" d="M95.3 140.6H85.3V150.6H95.3V140.6Z" fill="#38BF6D"/>
</g>
<g opacity="0.2">
<path opacity="0.2" d="M81.2 140.6H71.2V150.6H81.2V140.6Z" fill="#38BF6D"/>
</g>
<g opacity="0.2">
<path opacity="0.2" d="M67.1999 140.6H57.2V150.6H67.1999V140.6Z" fill="#38BF6D"/>
</g>
<g opacity="0.2">
<path opacity="0.2" d="M53.1001 140.6H43.1001V150.6H53.1001V140.6Z" fill="#38BF6D"/>
</g>
<g opacity="0.2">
<path opacity="0.2" d="M39 140.6H29V150.6H39V140.6Z" fill="#38BF6D"/>
</g>
<g opacity="0.2">
<path opacity="0.2" d="M25 140.6H15V150.6H25V140.6Z" fill="#38BF6D"/>
</g>
<g opacity="0.2">
<path opacity="0.2" d="M460.8 126.5H450.8V136.5H460.8V126.5Z" fill="#38BF6D"/>
</g>
<g opacity="0.2">
<path opacity="0.2" d="M446.7 126.5H436.7V136.5H446.7V126.5Z" fill="#38BF6D"/>
</g>
<g opacity="0.2">
<path opacity="0.2" d="M432.6 126.5H422.6V136.5H432.6V126.5Z" fill="#38BF6D"/>
</g>
<g opacity="0.2">
<path opacity="0.2" d="M418.6 126.5H408.6V136.5H418.6V126.5Z" fill="#38BF6D"/>
</g>
<g opacity="0.2">
<path opacity="0.2" d="M390.5 126.5H380.5V136.5H390.5V126.5Z" fill="#38BF6D"/>
</g>
<g opacity="0.2">
<path opacity="0.2" d="M376.4 126.5H366.4V136.5H376.4V126.5Z" fill="#38BF6D"/>
</g>
<g opacity="0.2">
<path opacity="0.2" d="M348.3 126.5H338.3V136.5H348.3V126.5Z" fill="#38BF6D"/>
</g>
<g opacity="0.2">
<path opacity="0.2" d="M334.2 126.5H324.2V136.5H334.2V126.5Z" fill="#38BF6D"/>
</g>
<g opacity="0.2">
<path opacity="0.2" d="M306.1 126.5H296.1V136.5H306.1V126.5Z" fill="#38BF6D"/>
</g>
<g opacity="0.2">
<path opacity="0.2" d="M292.1 126.5H282.1V136.5H292.1V126.5Z" fill="#38BF6D"/>
</g>
<g opacity="0.2">
<path opacity="0.2" d="M264 126.5H254V136.5H264V126.5Z" fill="#38BF6D"/>
</g>
<g opacity="0.2">
<path opacity="0.2" d="M249.9 126.5H239.9V136.5H249.9V126.5Z" fill="#38BF6D"/>
</g>
<g opacity="0.2">
<path opacity="0.2" d="M235.8 126.5H225.8V136.5H235.8V126.5Z" fill="#38BF6D"/>
</g>
<g opacity="0.2">
<path opacity="0.2" d="M207.7 126.5H197.7V136.5H207.7V126.5Z" fill="#38BF6D"/>
</g>
<g opacity="0.2">
<path opacity="0.2" d="M193.7 126.5H183.7V136.5H193.7V126.5Z" fill="#38BF6D"/>
</g>
<g opacity="0.2">
<path opacity="0.2" d="M179.6 126.5H169.6V136.5H179.6V126.5Z" fill="#38BF6D"/>
</g>
<g opacity="0.2">
<path opacity="0.2" d="M165.6 126.5H155.6V136.5H165.6V126.5Z" fill="#38BF6D"/>
</g>
<g opacity="0.2">
<path opacity="0.2" d="M151.5 126.5H141.5V136.5H151.5V126.5Z" fill="#38BF6D"/>
</g>
<g opacity="0.2">
<path opacity="0.2" d="M137.4 126.5H127.4V136.5H137.4V126.5Z" fill="#38BF6D"/>
</g>
<g opacity="0.2">
<path opacity="0.2" d="M109.3 126.5H99.3V136.5H109.3V126.5Z" fill="#38BF6D"/>
</g>
<g opacity="0.2">
<path opacity="0.2" d="M95.3 126.5H85.3V136.5H95.3V126.5Z" fill="#38BF6D"/>
</g>
<g opacity="0.2">
<path opacity="0.2" d="M81.2 126.5H71.2V136.5H81.2V126.5Z" fill="#38BF6D"/>
</g>
<g opacity="0.2">
<path opacity="0.2" d="M67.1999 126.5H57.2V136.5H67.1999V126.5Z" fill="#38BF6D"/>
</g>
<path d="M39 126.5H29V136.5H39V126.5Z" fill="#38BF6D"/>
<g opacity="0.2">
<path opacity="0.2" d="M25 126.5H15V136.5H25V126.5Z" fill="#38BF6D"/>
</g>
<g opacity="0.2">
<path opacity="0.2" d="M474.8 112.5H464.8V122.5H474.8V112.5Z" fill="#38BF6D"/>
</g>
<g opacity="0.2">
<path opacity="0.2" d="M460.8 112.5H450.8V122.5H460.8V112.5Z" fill="#38BF6D"/>
</g>
<path d="M446.7 112.5H436.7V122.5H446.7V112.5Z" fill="#38BF6D"/>
<g opacity="0.2">
<path opacity="0.2" d="M432.6 112.5H422.6V122.5H432.6V112.5Z" fill="#38BF6D"/>
</g>
<g opacity="0.2">
<path opacity="0.2" d="M418.6 112.5H408.6V122.5H418.6V112.5Z" fill="#38BF6D"/>
</g>
<g opacity="0.2">
<path opacity="0.2" d="M404.5 112.5H394.5V122.5H404.5V112.5Z" fill="#38BF6D"/>
</g>
<path d="M390.5 112.5H380.5V122.5H390.5V112.5Z" fill="#38BF6D"/>
<g opacity="0.2">
<path opacity="0.2" d="M376.4 112.5H366.4V122.5H376.4V112.5Z" fill="#38BF6D"/>
</g>
<g opacity="0.2">
<path opacity="0.2" d="M348.3 112.5H338.3V122.5H348.3V112.5Z" fill="#38BF6D"/>
</g>
<g opacity="0.2">
<path opacity="0.2" d="M334.2 112.5H324.2V122.5H334.2V112.5Z" fill="#38BF6D"/>
</g>
<g opacity="0.2">
<path opacity="0.2" d="M306.1 112.5H296.1V122.5H306.1V112.5Z" fill="#38BF6D"/>
</g>
<g opacity="0.2">
<path opacity="0.2" d="M292.1 112.5H282.1V122.5H292.1V112.5Z" fill="#38BF6D"/>
</g>
<g opacity="0.2">
<path opacity="0.2" d="M278 112.5H268V122.5H278V112.5Z" fill="#38BF6D"/>
</g>
<g opacity="0.2">
<path opacity="0.2" d="M264 112.5H254V122.5H264V112.5Z" fill="#38BF6D"/>
</g>
<g opacity="0.2">
<path opacity="0.2" d="M249.9 112.5H239.9V122.5H249.9V112.5Z" fill="#38BF6D"/>
</g>
<g opacity="0.2">
<path opacity="0.2" d="M235.8 112.5H225.8V122.5H235.8V112.5Z" fill="#38BF6D"/>
</g>
<g opacity="0.2">
<path opacity="0.2" d="M221.8 112.5H211.8V122.5H221.8V112.5Z" fill="#38BF6D"/>
</g>
<g opacity="0.2">
<path opacity="0.2" d="M207.7 112.5H197.7V122.5H207.7V112.5Z" fill="#38BF6D"/>
</g>
<g opacity="0.2">
<path opacity="0.2" d="M193.7 112.5H183.7V122.5H193.7V112.5Z" fill="#38BF6D"/>
</g>
<path d="M179.6 112.5H169.6V122.5H179.6V112.5Z" fill="#38BF6D"/>
<g opacity="0.2">
<path opacity="0.2" d="M165.6 112.5H155.6V122.5H165.6V112.5Z" fill="#38BF6D"/>
</g>
<g opacity="0.2">
<path opacity="0.2" d="M137.4 112.5H127.4V122.5H137.4V112.5Z" fill="#38BF6D"/>
</g>
<g opacity="0.2">
<path opacity="0.2" d="M123.4 112.5H113.4V122.5H123.4V112.5Z" fill="#38BF6D"/>
</g>
<path d="M109.3 112.5H99.3V122.5H109.3V112.5Z" fill="#38BF6D"/>
<g opacity="0.2">
<path opacity="0.2" d="M95.3 112.5H85.3V122.5H95.3V112.5Z" fill="#38BF6D"/>
</g>
<g opacity="0.2">
<path opacity="0.2" d="M81.2 112.5H71.2V122.5H81.2V112.5Z" fill="#38BF6D"/>
</g>
<g opacity="0.2">
<path opacity="0.2" d="M67.1999 112.5H57.2V122.5H67.1999V112.5Z" fill="#38BF6D"/>
</g>
<g opacity="0.2">
<path opacity="0.2" d="M53.1001 112.5H43.1001V122.5H53.1001V112.5Z" fill="#38BF6D"/>
</g>
<g opacity="0.2">
<path opacity="0.2" d="M39 112.5H29V122.5H39V112.5Z" fill="#38BF6D"/>
</g>
<g opacity="0.2">
<path opacity="0.2" d="M25 112.5H15V122.5H25V112.5Z" fill="#38BF6D"/>
</g>
<g opacity="0.2">
<path opacity="0.2" d="M474.8 98.3999H464.8V108.4H474.8V98.3999Z" fill="#38BF6D"/>
</g>
<g opacity="0.2">
<path opacity="0.2" d="M460.8 98.3999H450.8V108.4H460.8V98.3999Z" fill="#38BF6D"/>
</g>
<g opacity="0.2">
<path opacity="0.2" d="M418.6 98.3999H408.6V108.4H418.6V98.3999Z" fill="#38BF6D"/>
</g>
<g opacity="0.2">
<path opacity="0.2" d="M404.5 98.3999H394.5V108.4H404.5V98.3999Z" fill="#38BF6D"/>
</g>
<g opacity="0.2">
<path opacity="0.2" d="M390.5 98.3999H380.5V108.4H390.5V98.3999Z" fill="#38BF6D"/>
</g>
<g opacity="0.2">
<path opacity="0.2" d="M376.4 98.3999H366.4V108.4H376.4V98.3999Z" fill="#38BF6D"/>
</g>
<g opacity="0.2">
<path opacity="0.2" d="M362.4 98.3999H352.4V108.4H362.4V98.3999Z" fill="#38BF6D"/>
</g>
<g opacity="0.2">
<path opacity="0.2" d="M348.3 98.3999H338.3V108.4H348.3V98.3999Z" fill="#38BF6D"/>
</g>
<g opacity="0.2">
<path opacity="0.2" d="M334.2 98.3999H324.2V108.4H334.2V98.3999Z" fill="#38BF6D"/>
</g>
<g opacity="0.2">
<path opacity="0.2" d="M320.2 98.3999H310.2V108.4H320.2V98.3999Z" fill="#38BF6D"/>
</g>
<g opacity="0.2">
<path opacity="0.2" d="M306.1 98.3999H296.1V108.4H306.1V98.3999Z" fill="#38BF6D"/>
</g>
<g opacity="0.2">
<path opacity="0.2" d="M292.1 98.3999H282.1V108.4H292.1V98.3999Z" fill="#38BF6D"/>
</g>
<g opacity="0.2">
<path opacity="0.2" d="M264 98.3999H254V108.4H264V98.3999Z" fill="#38BF6D"/>
</g>
<g opacity="0.2">
<path opacity="0.2" d="M249.9 98.3999H239.9V108.4H249.9V98.3999Z" fill="#38BF6D"/>
</g>
<g opacity="0.2">
<path opacity="0.2" d="M207.7 98.3999H197.7V108.4H207.7V98.3999Z" fill="#38BF6D"/>
</g>
<g opacity="0.2">
<path opacity="0.2" d="M193.7 98.3999H183.7V108.4H193.7V98.3999Z" fill="#38BF6D"/>
</g>
<g opacity="0.2">
<path opacity="0.2" d="M179.6 98.3999H169.6V108.4H179.6V98.3999Z" fill="#38BF6D"/>
</g>
<g opacity="0.2">
<path opacity="0.2" d="M165.6 98.3999H155.6V108.4H165.6V98.3999Z" fill="#38BF6D"/>
</g>
<g opacity="0.2">
<path opacity="0.2" d="M151.5 98.3999H141.5V108.4H151.5V98.3999Z" fill="#38BF6D"/>
</g>
<g opacity="0.2">
<path opacity="0.2" d="M137.4 98.3999H127.4V108.4H137.4V98.3999Z" fill="#38BF6D"/>
</g>
<g opacity="0.2">
<path opacity="0.2" d="M123.4 98.3999H113.4V108.4H123.4V98.3999Z" fill="#38BF6D"/>
</g>
<path d="M109.3 98.3999H99.3V108.4H109.3V98.3999Z" fill="#38BF6D"/>
<g opacity="0.2">
<path opacity="0.2" d="M95.3 98.3999H85.3V108.4H95.3V98.3999Z" fill="#38BF6D"/>
</g>
<g opacity="0.2">
<path opacity="0.2" d="M81.2 98.3999H71.2V108.4H81.2V98.3999Z" fill="#38BF6D"/>
</g>
<g opacity="0.2">
<path opacity="0.2" d="M53.1001 98.3999H43.1001V108.4H53.1001V98.3999Z" fill="#38BF6D"/>
</g>
<g opacity="0.2">
<path opacity="0.2" d="M39 98.3999H29V108.4H39V98.3999Z" fill="#38BF6D"/>
</g>
<g opacity="0.2">
<path opacity="0.2" d="M460.8 84.3H450.8V94.3H460.8V84.3Z" fill="#38BF6D"/>
</g>
<g opacity="0.2">
<path opacity="0.2" d="M446.7 84.3H436.7V94.3H446.7V84.3Z" fill="#38BF6D"/>
</g>
<g opacity="0.2">
<path opacity="0.2" d="M432.6 84.3H422.6V94.3H432.6V84.3Z" fill="#38BF6D"/>
</g>
<g opacity="0.2">
<path opacity="0.2" d="M418.6 84.3H408.6V94.3H418.6V84.3Z" fill="#38BF6D"/>
</g>
<g opacity="0.2">
<path opacity="0.2" d="M404.5 84.3H394.5V94.3H404.5V84.3Z" fill="#38BF6D"/>
</g>
<g opacity="0.2">
<path opacity="0.2" d="M390.5 84.3H380.5V94.3H390.5V84.3Z" fill="#38BF6D"/>
</g>
<g opacity="0.2">
<path opacity="0.2" d="M376.4 84.3H366.4V94.3H376.4V84.3Z" fill="#38BF6D"/>
</g>
<g opacity="0.2">
<path opacity="0.2" d="M362.4 84.3H352.4V94.3H362.4V84.3Z" fill="#38BF6D"/>
</g>
<g opacity="0.2">
<path opacity="0.2" d="M348.3 84.3H338.3V94.3H348.3V84.3Z" fill="#38BF6D"/>
</g>
<g opacity="0.2">
<path opacity="0.2" d="M334.2 84.3H324.2V94.3H334.2V84.3Z" fill="#38BF6D"/>
</g>
<g opacity="0.2">
<path opacity="0.2" d="M306.1 84.3H296.1V94.3H306.1V84.3Z" fill="#38BF6D"/>
</g>
<path d="M292.1 84.3H282.1V94.3H292.1V84.3Z" fill="#38BF6D"/>
<g opacity="0.2">
<path opacity="0.2" d="M278 84.3H268V94.3H278V84.3Z" fill="#38BF6D"/>
</g>
<g opacity="0.2">
<path opacity="0.2" d="M264 84.3H254V94.3H264V84.3Z" fill="#38BF6D"/>
</g>
<g opacity="0.2">
<path opacity="0.2" d="M249.9 84.3H239.9V94.3H249.9V84.3Z" fill="#38BF6D"/>
</g>
<g opacity="0.2">
<path opacity="0.2" d="M235.8 84.3H225.8V94.3H235.8V84.3Z" fill="#38BF6D"/>
</g>
<g opacity="0.2">
<path opacity="0.2" d="M221.8 84.3H211.8V94.3H221.8V84.3Z" fill="#38BF6D"/>
</g>
<g opacity="0.2">
<path opacity="0.2" d="M207.7 84.3H197.7V94.3H207.7V84.3Z" fill="#38BF6D"/>
</g>
<g opacity="0.2">
<path opacity="0.2" d="M193.7 84.3H183.7V94.3H193.7V84.3Z" fill="#38BF6D"/>
</g>
<g opacity="0.2">
<path opacity="0.2" d="M179.6 84.3H169.6V94.3H179.6V84.3Z" fill="#38BF6D"/>
</g>
<g opacity="0.2">
<path opacity="0.2" d="M151.5 84.3H141.5V94.3H151.5V84.3Z" fill="#38BF6D"/>
</g>
<g opacity="0.2">
<path opacity="0.2" d="M137.4 84.3H127.4V94.3H137.4V84.3Z" fill="#38BF6D"/>
</g>
<g opacity="0.2">
<path opacity="0.2" d="M109.3 84.3H99.3V94.3H109.3V84.3Z" fill="#38BF6D"/>
</g>
<g opacity="0.2">
<path opacity="0.2" d="M95.3 84.3H85.3V94.3H95.3V84.3Z" fill="#38BF6D"/>
</g>
<g opacity="0.2">
<path opacity="0.2" d="M81.2 84.3H71.2V94.3H81.2V84.3Z" fill="#38BF6D"/>
</g>
<g opacity="0.2">
<path opacity="0.2" d="M67.1999 84.3H57.2V94.3H67.1999V84.3Z" fill="#38BF6D"/>
</g>
<g opacity="0.2">
<path opacity="0.2" d="M53.1001 84.3H43.1001V94.3H53.1001V84.3Z" fill="#38BF6D"/>
</g>
<g opacity="0.2">
<path opacity="0.2" d="M39 84.3H29V94.3H39V84.3Z" fill="#38BF6D"/>
</g>
<g opacity="0.2">
<path opacity="0.2" d="M474.8 70.3H464.8V80.3H474.8V70.3Z" fill="#38BF6D"/>
</g>
<g opacity="0.2">
<path opacity="0.2" d="M460.8 70.3H450.8V80.3H460.8V70.3Z" fill="#38BF6D"/>
</g>
<g opacity="0.2">
<path opacity="0.2" d="M446.7 70.3H436.7V80.3H446.7V70.3Z" fill="#38BF6D"/>
</g>
<g opacity="0.2">
<path opacity="0.2" d="M432.6 70.3H422.6V80.3H432.6V70.3Z" fill="#38BF6D"/>
</g>
<g opacity="0.2">
<path opacity="0.2" d="M418.6 70.3H408.6V80.3H418.6V70.3Z" fill="#38BF6D"/>
</g>
<g opacity="0.2">
<path opacity="0.2" d="M404.5 70.3H394.5V80.3H404.5V70.3Z" fill="#38BF6D"/>
</g>
<g opacity="0.2">
<path opacity="0.2" d="M362.4 70.3H352.4V80.3H362.4V70.3Z" fill="#38BF6D"/>
</g>
<g opacity="0.2">
<path opacity="0.2" d="M334.2 70.3H324.2V80.3H334.2V70.3Z" fill="#38BF6D"/>
</g>
<g opacity="0.2">
<path opacity="0.2" d="M320.2 70.3H310.2V80.3H320.2V70.3Z" fill="#38BF6D"/>
</g>
<g opacity="0.2">
<path opacity="0.2" d="M306.1 70.3H296.1V80.3H306.1V70.3Z" fill="#38BF6D"/>
</g>
<g opacity="0.2">
<path opacity="0.2" d="M278 70.3H268V80.3H278V70.3Z" fill="#38BF6D"/>
</g>
<g opacity="0.2">
<path opacity="0.2" d="M264 70.3H254V80.3H264V70.3Z" fill="#38BF6D"/>
</g>
<g opacity="0.2">
<path opacity="0.2" d="M249.9 70.3H239.9V80.3H249.9V70.3Z" fill="#38BF6D"/>
</g>
<g opacity="0.2">
<path opacity="0.2" d="M235.8 70.3H225.8V80.3H235.8V70.3Z" fill="#38BF6D"/>
</g>
<g opacity="0.2">
<path opacity="0.2" d="M221.8 70.3H211.8V80.3H221.8V70.3Z" fill="#38BF6D"/>
</g>
<g opacity="0.2">
<path opacity="0.2" d="M207.7 70.3H197.7V80.3H207.7V70.3Z" fill="#38BF6D"/>
</g>
<g opacity="0.2">
<path opacity="0.2" d="M193.7 70.3H183.7V80.3H193.7V70.3Z" fill="#38BF6D"/>
</g>
<g opacity="0.2">
<path opacity="0.2" d="M179.6 70.3H169.6V80.3H179.6V70.3Z" fill="#38BF6D"/>
</g>
<g opacity="0.2">
<path opacity="0.2" d="M165.6 70.3H155.6V80.3H165.6V70.3Z" fill="#38BF6D"/>
</g>
<g opacity="0.2">
<path opacity="0.2" d="M151.5 70.3H141.5V80.3H151.5V70.3Z" fill="#38BF6D"/>
</g>
<g opacity="0.2">
<path opacity="0.2" d="M137.4 70.3H127.4V80.3H137.4V70.3Z" fill="#38BF6D"/>
</g>
<g opacity="0.2">
<path opacity="0.2" d="M123.4 70.3H113.4V80.3H123.4V70.3Z" fill="#38BF6D"/>
</g>
<g opacity="0.2">
<path opacity="0.2" d="M109.3 70.3H99.3V80.3H109.3V70.3Z" fill="#38BF6D"/>
</g>
<g opacity="0.2">
<path opacity="0.2" d="M95.3 70.3H85.3V80.3H95.3V70.3Z" fill="#38BF6D"/>
</g>
<g opacity="0.2">
<path opacity="0.2" d="M67.1999 70.3H57.2V80.3H67.1999V70.3Z" fill="#38BF6D"/>
</g>
<g opacity="0.2">
<path opacity="0.2" d="M39 70.3H29V80.3H39V70.3Z" fill="#38BF6D"/>
</g>
<g opacity="0.2">
<path opacity="0.2" d="M25 70.3H15V80.3H25V70.3Z" fill="#38BF6D"/>
</g>
<g opacity="0.2">
<path opacity="0.2" d="M460.8 56.2H450.8V66.1999H460.8V56.2Z" fill="#38BF6D"/>
</g>
<g opacity="0.2">
<path opacity="0.2" d="M432.6 56.2H422.6V66.1999H432.6V56.2Z" fill="#38BF6D"/>
</g>
<g opacity="0.2">
<path opacity="0.2" d="M418.6 56.2H408.6V66.1999H418.6V56.2Z" fill="#38BF6D"/>
</g>
<g opacity="0.2">
<path opacity="0.2" d="M404.5 56.2H394.5V66.1999H404.5V56.2Z" fill="#38BF6D"/>
</g>
<g opacity="0.2">
<path opacity="0.2" d="M390.5 56.2H380.5V66.1999H390.5V56.2Z" fill="#38BF6D"/>
</g>
<g opacity="0.2">
<path opacity="0.2" d="M376.4 56.2H366.4V66.1999H376.4V56.2Z" fill="#38BF6D"/>
</g>
<g opacity="0.2">
<path opacity="0.2" d="M362.4 56.2H352.4V66.1999H362.4V56.2Z" fill="#38BF6D"/>
</g>
<g opacity="0.2">
<path opacity="0.2" d="M348.3 56.2H338.3V66.1999H348.3V56.2Z" fill="#38BF6D"/>
</g>
<g opacity="0.2">
<path opacity="0.2" d="M306.1 56.2H296.1V66.1999H306.1V56.2Z" fill="#38BF6D"/>
</g>
<g opacity="0.2">
<path opacity="0.2" d="M292.1 56.2H282.1V66.1999H292.1V56.2Z" fill="#38BF6D"/>
</g>
<g opacity="0.2">
<path opacity="0.2" d="M278 56.2H268V66.1999H278V56.2Z" fill="#38BF6D"/>
</g>
<g opacity="0.2">
<path opacity="0.2" d="M264 56.2H254V66.1999H264V56.2Z" fill="#38BF6D"/>
</g>
<g opacity="0.2">
<path opacity="0.2" d="M249.9 56.2H239.9V66.1999H249.9V56.2Z" fill="#38BF6D"/>
</g>
<g opacity="0.2">
<path opacity="0.2" d="M221.8 56.2H211.8V66.1999H221.8V56.2Z" fill="#38BF6D"/>
</g>
<g opacity="0.2">
<path opacity="0.2" d="M207.7 56.2H197.7V66.1999H207.7V56.2Z" fill="#38BF6D"/>
</g>
<g opacity="0.2">
<path opacity="0.2" d="M179.6 56.2H169.6V66.1999H179.6V56.2Z" fill="#38BF6D"/>
</g>
<g opacity="0.2">
<path opacity="0.2" d="M165.6 56.2H155.6V66.1999H165.6V56.2Z" fill="#38BF6D"/>
</g>
<g opacity="0.2">
<path opacity="0.2" d="M151.5 56.2H141.5V66.1999H151.5V56.2Z" fill="#38BF6D"/>
</g>
<g opacity="0.2">
<path opacity="0.2" d="M137.4 56.2H127.4V66.1999H137.4V56.2Z" fill="#38BF6D"/>
</g>
<g opacity="0.2">
<path opacity="0.2" d="M123.4 56.2H113.4V66.1999H123.4V56.2Z" fill="#38BF6D"/>
</g>
<g opacity="0.2">
<path opacity="0.2" d="M109.3 56.2H99.3V66.1999H109.3V56.2Z" fill="#38BF6D"/>
</g>
<g opacity="0.2">
<path opacity="0.2" d="M95.3 56.2H85.3V66.1999H95.3V56.2Z" fill="#38BF6D"/>
</g>
<g opacity="0.2">
<path opacity="0.2" d="M67.1999 56.2H57.2V66.1999H67.1999V56.2Z" fill="#38BF6D"/>
</g>
<path d="M53.1001 56.2H43.1001V66.1999H53.1001V56.2Z" fill="#38BF6D"/>
<g opacity="0.2">
<path opacity="0.2" d="M25 56.2H15V66.1999H25V56.2Z" fill="#38BF6D"/>
</g>
<g opacity="0.2">
<path opacity="0.2" d="M474.8 42.2H464.8V52.2H474.8V42.2Z" fill="#38BF6D"/>
</g>
<g opacity="0.2">
<path opacity="0.2" d="M460.8 42.2H450.8V52.2H460.8V42.2Z" fill="#38BF6D"/>
</g>
<g opacity="0.2">
<path opacity="0.2" d="M446.7 42.2H436.7V52.2H446.7V42.2Z" fill="#38BF6D"/>
</g>
<g opacity="0.2">
<path opacity="0.2" d="M432.6 42.2H422.6V52.2H432.6V42.2Z" fill="#38BF6D"/>
</g>
<g opacity="0.2">
<path opacity="0.2" d="M418.6 42.2H408.6V52.2H418.6V42.2Z" fill="#38BF6D"/>
</g>
<g opacity="0.2">
<path opacity="0.2" d="M404.5 42.2H394.5V52.2H404.5V42.2Z" fill="#38BF6D"/>
</g>
<g opacity="0.2">
<path opacity="0.2" d="M390.5 42.2H380.5V52.2H390.5V42.2Z" fill="#38BF6D"/>
</g>
<g opacity="0.2">
<path opacity="0.2" d="M362.4 42.2H352.4V52.2H362.4V42.2Z" fill="#38BF6D"/>
</g>
<g opacity="0.2">
<path opacity="0.2" d="M348.3 42.2H338.3V52.2H348.3V42.2Z" fill="#38BF6D"/>
</g>
<g opacity="0.2">
<path opacity="0.2" d="M334.2 42.2H324.2V52.2H334.2V42.2Z" fill="#38BF6D"/>
</g>
<g opacity="0.2">
<path opacity="0.2" d="M320.2 42.2H310.2V52.2H320.2V42.2Z" fill="#38BF6D"/>
</g>
<g opacity="0.2">
<path opacity="0.2" d="M278 42.2H268V52.2H278V42.2Z" fill="#38BF6D"/>
</g>
<g opacity="0.2">
<path opacity="0.2" d="M264 42.2H254V52.2H264V42.2Z" fill="#38BF6D"/>
</g>
<g opacity="0.2">
<path opacity="0.2" d="M249.9 42.2H239.9V52.2H249.9V42.2Z" fill="#38BF6D"/>
</g>
<g opacity="0.2">
<path opacity="0.2" d="M235.8 42.2H225.8V52.2H235.8V42.2Z" fill="#38BF6D"/>
</g>
<g opacity="0.2">
<path opacity="0.2" d="M221.8 42.2H211.8V52.2H221.8V42.2Z" fill="#38BF6D"/>
</g>
<g opacity="0.2">
<path opacity="0.2" d="M207.7 42.2H197.7V52.2H207.7V42.2Z" fill="#38BF6D"/>
</g>
<g opacity="0.2">
<path opacity="0.2" d="M193.7 42.2H183.7V52.2H193.7V42.2Z" fill="#38BF6D"/>
</g>
<g opacity="0.2">
<path opacity="0.2" d="M179.6 42.2H169.6V52.2H179.6V42.2Z" fill="#38BF6D"/>
</g>
<g opacity="0.2">
<path opacity="0.2" d="M165.6 42.2H155.6V52.2H165.6V42.2Z" fill="#38BF6D"/>
</g>
<g opacity="0.2">
<path opacity="0.2" d="M151.5 42.2H141.5V52.2H151.5V42.2Z" fill="#38BF6D"/>
</g>
<path d="M137.4 42.2H127.4V52.2H137.4V42.2Z" fill="#38BF6D"/>
<g opacity="0.2">
<path opacity="0.2" d="M123.4 42.2H113.4V52.2H123.4V42.2Z" fill="#38BF6D"/>
</g>
<g opacity="0.2">
<path opacity="0.2" d="M95.3 42.2H85.3V52.2H95.3V42.2Z" fill="#38BF6D"/>
</g>
<g opacity="0.2">
<path opacity="0.2" d="M81.2 42.2H71.2V52.2H81.2V42.2Z" fill="#38BF6D"/>
</g>
<g opacity="0.2">
<path opacity="0.2" d="M67.1999 42.2H57.2V52.2H67.1999V42.2Z" fill="#38BF6D"/>
</g>
<g opacity="0.2">
<path opacity="0.2" d="M53.1001 42.2H43.1001V52.2H53.1001V42.2Z" fill="#38BF6D"/>
</g>
<g opacity="0.2">
<path opacity="0.2" d="M25 42.2H15V52.2H25V42.2Z" fill="#38BF6D"/>
</g>
<g opacity="0.2">
<path opacity="0.2" d="M474.8 28.1001H464.8V38.1001H474.8V28.1001Z" fill="#38BF6D"/>
</g>
<g opacity="0.2">
<path opacity="0.2" d="M460.8 28.1001H450.8V38.1001H460.8V28.1001Z" fill="#38BF6D"/>
</g>
<g opacity="0.2">
<path opacity="0.2" d="M446.7 28.1001H436.7V38.1001H446.7V28.1001Z" fill="#38BF6D"/>
</g>
<g opacity="0.2">
<path opacity="0.2" d="M418.6 28.1001H408.6V38.1001H418.6V28.1001Z" fill="#38BF6D"/>
</g>
<g opacity="0.2">
<path opacity="0.2" d="M404.5 28.1001H394.5V38.1001H404.5V28.1001Z" fill="#38BF6D"/>
</g>
<g opacity="0.2">
<path opacity="0.2" d="M390.5 28.1001H380.5V38.1001H390.5V28.1001Z" fill="#38BF6D"/>
</g>
<g opacity="0.2">
<path opacity="0.2" d="M376.4 28.1001H366.4V38.1001H376.4V28.1001Z" fill="#38BF6D"/>
</g>
<g opacity="0.2">
<path opacity="0.2" d="M348.3 28.1001H338.3V38.1001H348.3V28.1001Z" fill="#38BF6D"/>
</g>
<g opacity="0.2">
<path opacity="0.2" d="M334.2 28.1001H324.2V38.1001H334.2V28.1001Z" fill="#38BF6D"/>
</g>
<g opacity="0.2">
<path opacity="0.2" d="M306.1 28.1001H296.1V38.1001H306.1V28.1001Z" fill="#38BF6D"/>
</g>
<g opacity="0.2">
<path opacity="0.2" d="M292.1 28.1001H282.1V38.1001H292.1V28.1001Z" fill="#38BF6D"/>
</g>
<g opacity="0.2">
<path opacity="0.2" d="M278 28.1001H268V38.1001H278V28.1001Z" fill="#38BF6D"/>
</g>
<g opacity="0.2">
<path opacity="0.2" d="M249.9 28.1001H239.9V38.1001H249.9V28.1001Z" fill="#38BF6D"/>
</g>
<g opacity="0.2">
<path opacity="0.2" d="M221.8 28.1001H211.8V38.1001H221.8V28.1001Z" fill="#38BF6D"/>
</g>
<g opacity="0.2">
<path opacity="0.2" d="M207.7 28.1001H197.7V38.1001H207.7V28.1001Z" fill="#38BF6D"/>
</g>
<g opacity="0.2">
<path opacity="0.2" d="M193.7 28.1001H183.7V38.1001H193.7V28.1001Z" fill="#38BF6D"/>
</g>
<g opacity="0.2">
<path opacity="0.2" d="M179.6 28.1001H169.6V38.1001H179.6V28.1001Z" fill="#38BF6D"/>
</g>
<g opacity="0.2">
<path opacity="0.2" d="M165.6 28.1001H155.6V38.1001H165.6V28.1001Z" fill="#38BF6D"/>
</g>
<g opacity="0.2">
<path opacity="0.2" d="M137.4 28.1001H127.4V38.1001H137.4V28.1001Z" fill="#38BF6D"/>
</g>
<g opacity="0.2">
<path opacity="0.2" d="M123.4 28.1001H113.4V38.1001H123.4V28.1001Z" fill="#38BF6D"/>
</g>
<g opacity="0.2">
<path opacity="0.2" d="M109.3 28.1001H99.3V38.1001H109.3V28.1001Z" fill="#38BF6D"/>
</g>
<g opacity="0.2">
<path opacity="0.2" d="M95.3 28.1001H85.3V38.1001H95.3V28.1001Z" fill="#38BF6D"/>
</g>
<g opacity="0.2">
<path opacity="0.2" d="M81.2 28.1001H71.2V38.1001H81.2V28.1001Z" fill="#38BF6D"/>
</g>
<g opacity="0.2">
<path opacity="0.2" d="M67.1999 28.1001H57.2V38.1001H67.1999V28.1001Z" fill="#38BF6D"/>
</g>
<g opacity="0.2">
<path opacity="0.2" d="M53.1001 28.1001H43.1001V38.1001H53.1001V28.1001Z" fill="#38BF6D"/>
</g>
<g opacity="0.2">
<path opacity="0.2" d="M39 28.1001H29V38.1001H39V28.1001Z" fill="#38BF6D"/>
</g>
<g opacity="0.2">
<path opacity="0.2" d="M25 28.1001H15V38.1001H25V28.1001Z" fill="#38BF6D"/>
</g>
<g opacity="0.2">
<path opacity="0.2" d="M474.8 14.1001H464.8V24.1001H474.8V14.1001Z" fill="#38BF6D"/>
</g>
<g opacity="0.2">
<path opacity="0.2" d="M446.7 14.1001H436.7V24.1001H446.7V14.1001Z" fill="#38BF6D"/>
</g>
<g opacity="0.2">
<path opacity="0.2" d="M432.6 14.1001H422.6V24.1001H432.6V14.1001Z" fill="#38BF6D"/>
</g>
<g opacity="0.2">
<path opacity="0.2" d="M418.6 14.1001H408.6V24.1001H418.6V14.1001Z" fill="#38BF6D"/>
</g>
<g opacity="0.2">
<path opacity="0.2" d="M404.5 14.1001H394.5V24.1001H404.5V14.1001Z" fill="#38BF6D"/>
</g>
<g opacity="0.2">
<path opacity="0.2" d="M390.5 14.1001H380.5V24.1001H390.5V14.1001Z" fill="#38BF6D"/>
</g>
<g opacity="0.2">
<path opacity="0.2" d="M376.4 14.1001H366.4V24.1001H376.4V14.1001Z" fill="#38BF6D"/>
</g>
<g opacity="0.2">
<path opacity="0.2" d="M362.4 14.1001H352.4V24.1001H362.4V14.1001Z" fill="#38BF6D"/>
</g>
<g opacity="0.2">
<path opacity="0.2" d="M348.3 14.1001H338.3V24.1001H348.3V14.1001Z" fill="#38BF6D"/>
</g>
<g opacity="0.2">
<path opacity="0.2" d="M334.2 14.1001H324.2V24.1001H334.2V14.1001Z" fill="#38BF6D"/>
</g>
<g opacity="0.2">
<path opacity="0.2" d="M320.2 14.1001H310.2V24.1001H320.2V14.1001Z" fill="#38BF6D"/>
</g>
<g opacity="0.2">
<path opacity="0.2" d="M306.1 14.1001H296.1V24.1001H306.1V14.1001Z" fill="#38BF6D"/>
</g>
<g opacity="0.2">
<path opacity="0.2" d="M292.1 14.1001H282.1V24.1001H292.1V14.1001Z" fill="#38BF6D"/>
</g>
<g opacity="0.2">
<path opacity="0.2" d="M278 14.1001H268V24.1001H278V14.1001Z" fill="#38BF6D"/>
</g>
<g opacity="0.2">
<path opacity="0.2" d="M264 14.1001H254V24.1001H264V14.1001Z" fill="#38BF6D"/>
</g>
<g opacity="0.2">
<path opacity="0.2" d="M249.9 14.1001H239.9V24.1001H249.9V14.1001Z" fill="#38BF6D"/>
</g>
<g opacity="0.2">
<path opacity="0.2" d="M235.8 14.1001H225.8V24.1001H235.8V14.1001Z" fill="#38BF6D"/>
</g>
<g opacity="0.2">
<path opacity="0.2" d="M221.8 14.1001H211.8V24.1001H221.8V14.1001Z" fill="#38BF6D"/>
</g>
<g opacity="0.2">
<path opacity="0.2" d="M207.7 14.1001H197.7V24.1001H207.7V14.1001Z" fill="#38BF6D"/>
</g>
<g opacity="0.2">
<path opacity="0.2" d="M193.7 14.1001H183.7V24.1001H193.7V14.1001Z" fill="#38BF6D"/>
</g>
<g opacity="0.2">
<path opacity="0.2" d="M179.6 14.1001H169.6V24.1001H179.6V14.1001Z" fill="#38BF6D"/>
</g>
<g opacity="0.2">
<path opacity="0.2" d="M165.6 14.1001H155.6V24.1001H165.6V14.1001Z" fill="#38BF6D"/>
</g>
<g opacity="0.2">
<path opacity="0.2" d="M151.5 14.1001H141.5V24.1001H151.5V14.1001Z" fill="#38BF6D"/>
</g>
<g opacity="0.2">
<path opacity="0.2" d="M137.4 14.1001H127.4V24.1001H137.4V14.1001Z" fill="#38BF6D"/>
</g>
<g opacity="0.2">
<path opacity="0.2" d="M109.3 14.1001H99.3V24.1001H109.3V14.1001Z" fill="#38BF6D"/>
</g>
<g opacity="0.2">
<path opacity="0.2" d="M95.3 14.1001H85.3V24.1001H95.3V14.1001Z" fill="#38BF6D"/>
</g>
<g opacity="0.2">
<path opacity="0.2" d="M67.1999 14.1001H57.2V24.1001H67.1999V14.1001Z" fill="#38BF6D"/>
</g>
<g opacity="0.2">
<path opacity="0.2" d="M53.1001 14.1001H43.1001V24.1001H53.1001V14.1001Z" fill="#38BF6D"/>
</g>
<g opacity="0.2">
<path opacity="0.2" d="M474.8 0H464.8V10H474.8V0Z" fill="#38BF6D"/>
</g>
<g opacity="0.2">
<path opacity="0.2" d="M460.8 0H450.8V10H460.8V0Z" fill="#38BF6D"/>
</g>
<g opacity="0.2">
<path opacity="0.2" d="M446.7 0H436.7V10H446.7V0Z" fill="#38BF6D"/>
</g>
<g opacity="0.2">
<path opacity="0.2" d="M418.6 0H408.6V10H418.6V0Z" fill="#38BF6D"/>
</g>
<g opacity="0.2">
<path opacity="0.2" d="M390.5 0H380.5V10H390.5V0Z" fill="#38BF6D"/>
</g>
<g opacity="0.2">
<path opacity="0.2" d="M362.4 0H352.4V10H362.4V0Z" fill="#38BF6D"/>
</g>
<g opacity="0.2">
<path opacity="0.2" d="M348.3 0H338.3V10H348.3V0Z" fill="#38BF6D"/>
</g>
<g opacity="0.2">
<path opacity="0.2" d="M334.2 0H324.2V10H334.2V0Z" fill="#38BF6D"/>
</g>
<g opacity="0.2">
<path opacity="0.2" d="M320.2 0H310.2V10H320.2V0Z" fill="#38BF6D"/>
</g>
<g opacity="0.2">
<path opacity="0.2" d="M292.1 0H282.1V10H292.1V0Z" fill="#38BF6D"/>
</g>
<g opacity="0.2">
<path opacity="0.2" d="M278 0H268V10H278V0Z" fill="#38BF6D"/>
</g>
<g opacity="0.2">
<path opacity="0.2" d="M249.9 0H239.9V10H249.9V0Z" fill="#38BF6D"/>
</g>
<g opacity="0.2">
<path opacity="0.2" d="M235.8 0H225.8V10H235.8V0Z" fill="#38BF6D"/>
</g>
<g opacity="0.2">
<path opacity="0.2" d="M221.8 0H211.8V10H221.8V0Z" fill="#38BF6D"/>
</g>
<g opacity="0.2">
<path opacity="0.2" d="M207.7 0H197.7V10H207.7V0Z" fill="#38BF6D"/>
</g>
<g opacity="0.2">
<path opacity="0.2" d="M137.4 0H127.4V10H137.4V0Z" fill="#38BF6D"/>
</g>
<g opacity="0.2">
<path opacity="0.2" d="M123.4 0H113.4V10H123.4V0Z" fill="#38BF6D"/>
</g>
<g opacity="0.2">
<path opacity="0.2" d="M109.3 0H99.3V10H109.3V0Z" fill="#38BF6D"/>
</g>
<g opacity="0.2">
<path opacity="0.2" d="M95.3 0H85.3V10H95.3V0Z" fill="#38BF6D"/>
</g>
<g opacity="0.2">
<path opacity="0.2" d="M81.2 0H71.2V10H81.2V0Z" fill="#38BF6D"/>
</g>
<g opacity="0.2">
<path opacity="0.2" d="M67.1999 0H57.2V10H67.1999V0Z" fill="#38BF6D"/>
</g>
<g opacity="0.2">
<path opacity="0.2" d="M53.1001 0H43.1001V10H53.1001V0Z" fill="#38BF6D"/>
</g>
<path d="M177 57.3C173.8 57.3 171.1 54.7 171.1 51.4C171.1 48.2 173.7 45.5 177 45.5C180.2 45.5 182.9 48.1 182.9 51.4C182.8 54.6 180.2 57.3 177 57.3ZM177 46.6C174.3 46.6 172.2 48.8 172.2 51.4C172.2 54.1 174.4 56.2 177 56.2C179.7 56.2 181.8 54 181.8 51.4C181.8 48.8 179.6 46.6 177 46.6Z" fill="#38BF6D"/>
</g>
<defs>
<clipPath id="clip0">
<rect width="474.9" height="396.7" fill="white"/>
</clipPath>
</defs>
</svg>
